<svg width="45" height="44" viewBox="0 0 45 44" fill="none" xmlns="http://www.w3.org/2000/svg">
<path d="M4.33301 39.4058C6.70626 39.5816 8.70307 37.5835 10.4441 37.5835C12.1852 37.5835 15.0117 39.4265 16.5552 39.4058C18.4075 39.4214 20.5771 37.5835 22.6663 37.5835C24.7556 37.5835 26.9252 39.4214 28.7774 39.4058C31.1506 39.5816 33.1475 37.5835 34.8886 37.5835C36.6296 37.5835 39.4562 39.4265 40.9997 39.4058" stroke="#222222" stroke-width="1.75" stroke-linecap="round" stroke-linejoin="round"/>
<path d="M11.6665 37.5833C9.06709 34.3449 7.23508 30.2001 6.45496 28.0038C6.20757 27.3073 6.08389 26.9592 6.22753 26.6262C6.37115 26.2935 6.72341 26.1375 7.42789 25.8254L21.158 19.7435C21.9009 19.4145 22.2723 19.25 22.6665 19.25C23.0607 19.25 23.4321 19.4145 24.175 19.7435L37.9052 25.8254C38.6095 26.1375 38.9619 26.2935 39.1055 26.6262C39.2492 26.9592 39.1254 27.3073 38.8781 28.0038C38.0978 30.2001 36.266 34.3449 33.6665 37.5833" stroke="#222222" stroke-width="1.75" stroke-linecap="round" stroke-linejoin="round"/>
<path d="M11.6665 23.8332L12.0623 18.6874C12.3094 15.4753 12.433 13.8692 13.4873 12.8929C14.5416 11.9165 16.1524 11.9165 19.374 11.9165H25.959C29.1805 11.9165 30.7913 11.9165 31.8456 12.8929C32.9 13.8692 33.0236 15.4753 33.2707 18.6874L33.6665 23.8332" stroke="#222222" stroke-width="1.75" stroke-linecap="round" stroke-linejoin="round"/>
<path d="M16.25 11.9168L16.5644 9.40131C16.8512 7.10728 16.9946 5.96027 17.7744 5.27188C18.5542 4.5835 19.7101 4.5835 22.0219 4.5835H23.3114C25.6233 4.5835 26.7792 4.5835 27.5589 5.27188C28.3388 5.96027 28.4822 7.10728 28.7689 9.40131L29.0833 11.9168" stroke="#222222" stroke-width="1.75" stroke-linecap="round" stroke-linejoin="round"/>
</svg>
