<svg width="28" height="25" viewBox="0 0 28 25" fill="none" xmlns="http://www.w3.org/2000/svg">
<path d="M4 6.5C4 5.90905 4.1164 5.32389 4.34254 4.77792C4.56869 4.23196 4.90016 3.73588 5.31802 3.31802C5.73588 2.90016 6.23196 2.56869 6.77792 2.34254C7.32389 2.1164 7.90905 2 8.5 2C9.09095 2 9.67611 2.1164 10.2221 2.34254C10.768 2.56869 11.2641 2.90016 11.682 3.31802C12.0998 3.73588 12.4313 4.23196 12.6575 4.77792C12.8836 5.32389 13 5.90905 13 6.5C13 7.69347 12.5259 8.83807 11.682 9.68198C10.8381 10.5259 9.69347 11 8.5 11C7.30653 11 6.16193 10.5259 5.31802 9.68198C4.47411 8.83807 4 7.69347 4 6.5ZM8.5 1C7.04131 1 5.64236 1.57946 4.61091 2.61091C3.57946 3.64236 3 5.04131 3 6.5C3 7.95869 3.57946 9.35764 4.61091 10.3891C5.64236 11.4205 7.04131 12 8.5 12C9.95869 12 11.3576 11.4205 12.3891 10.3891C13.4205 9.35764 14 7.95869 14 6.5C14 5.04131 13.4205 3.64236 12.3891 2.61091C11.3576 1.57946 9.95869 1 8.5 1ZM18 8C18 7.20435 18.3161 6.44129 18.8787 5.87868C19.4413 5.31607 20.2043 5 21 5C21.7956 5 22.5587 5.31607 23.1213 5.87868C23.6839 6.44129 24 7.20435 24 8C24 8.79565 23.6839 9.55871 23.1213 10.1213C22.5587 10.6839 21.7956 11 21 11C20.2043 11 19.4413 10.6839 18.8787 10.1213C18.3161 9.55871 18 8.79565 18 8ZM21 4C19.9391 4 18.9217 4.42143 18.1716 5.17157C17.4214 5.92172 17 6.93913 17 8C17 9.06087 17.4214 10.0783 18.1716 10.8284C18.9217 11.5786 19.9391 12 21 12C22.0609 12 23.0783 11.5786 23.8284 10.8284C24.5786 10.0783 25 9.06087 25 8C25 6.93913 24.5786 5.92172 23.8284 5.17157C23.0783 4.42143 22.0609 4 21 4ZM3 14C2.20435 14 1.44129 14.3161 0.87868 14.8787C0.316071 15.4413 0 16.2044 0 17C0 18.116 0.417 19.63 1.719 20.863C3.024 22.099 5.16 23 8.499 23C11.838 23 13.976 22.1 15.281 20.863C16.583 19.63 17 18.116 17 17C17 16.2044 16.6839 15.4413 16.1213 14.8787C15.5587 14.3161 14.7956 14 14 14H3ZM1 17C1 16.4696 1.21071 15.9609 1.58579 15.5858C1.96086 15.2107 2.46957 15 3 15H14C14.5304 15 15.0391 15.2107 15.4142 15.5858C15.7893 15.9609 16 16.4696 16 17C16 17.884 15.667 19.12 14.594 20.137C13.524 21.151 11.66 22 8.5 22C5.34 22 3.476 21.15 2.406 20.137C1.333 19.12 1 17.884 1 17ZM17.963 19.588C17.8363 19.8893 17.6823 20.1893 17.501 20.488C18.427 20.805 19.578 21 21 21C23.842 21 25.601 20.223 26.654 19.24C27.696 18.268 28 17.134 28 16.5C28 15.837 27.7366 15.2011 27.2678 14.7322C26.7989 14.2634 26.163 14 25.5 14H17.354C17.622 14.3 17.851 14.636 18.032 15H25.5C25.8978 15 26.2794 15.158 26.5607 15.4393C26.842 15.7206 27 16.1022 27 16.5C27 16.867 26.804 17.733 25.971 18.51C25.15 19.277 23.658 20 21 20C19.745 20 18.75 19.839 17.963 19.588Z" fill="#42D51E"/>
</svg>
