<svg width="26" height="22" viewBox="0 0 26 22" fill="none" xmlns="http://www.w3.org/2000/svg">
<path d="M2.25003 21.845C1.72792 21.845 1.28083 21.665 0.908777 21.305C0.536721 20.945 0.351721 20.51 0.353777 20C0.355832 19.49 0.540832 19.055 0.908777 18.695C1.27672 18.335 1.7238 18.155 2.25003 18.155C2.77625 18.155 3.22333 18.335 3.59128 18.695C3.95922 19.055 4.14422 19.49 4.14628 20C4.14833 20.51 3.96333 20.945 3.59128 21.305C3.21922 21.665 2.77214 21.845 2.25003 21.845ZM2.25003 12.845C1.72792 12.845 1.28083 12.665 0.908777 12.305C0.536721 11.945 0.351721 11.51 0.353777 11C0.355832 10.49 0.540832 10.055 0.908777 9.695C1.27672 9.335 1.7238 9.155 2.25003 9.155C2.77625 9.155 3.22333 9.335 3.59128 9.695C3.95922 10.055 4.14422 10.49 4.14628 11C4.14833 11.51 3.96333 11.945 3.59128 12.305C3.21922 12.665 2.77214 12.845 2.25003 12.845ZM2.25003 3.845C1.72792 3.845 1.28083 3.665 0.908777 3.305C0.536721 2.945 0.351721 2.51 0.353777 2C0.355832 1.49 0.540832 1.055 0.908777 0.694999C1.27672 0.334999 1.7238 0.154999 2.25003 0.154999C2.77625 0.154999 3.22333 0.334999 3.59128 0.694999C3.95922 1.055 4.14422 1.49 4.14628 2C4.14833 2.51 3.96333 2.945 3.59128 3.305C3.21922 3.665 2.77214 3.845 2.25003 3.845ZM11.5 3.845C10.9779 3.845 10.5308 3.665 10.1588 3.305C9.78672 2.945 9.60172 2.51 9.60378 2C9.60583 1.49 9.79083 1.055 10.1588 0.694999C10.5267 0.334999 10.9738 0.154999 11.5 0.154999C12.0262 0.154999 12.4733 0.334999 12.8413 0.694999C13.2092 1.055 13.3942 1.49 13.3963 2C13.3983 2.51 13.2133 2.945 12.8413 3.305C12.4692 3.665 12.0221 3.845 11.5 3.845ZM20.75 3.845C20.2279 3.845 19.7808 3.665 19.4088 3.305C19.0367 2.945 18.8517 2.51 18.8538 2C18.8558 1.49 19.0408 1.055 19.4088 0.694999C19.7767 0.334999 20.2238 0.154999 20.75 0.154999C21.2762 0.154999 21.7233 0.334999 22.0913 0.694999C22.4592 1.055 22.6442 1.49 22.6463 2C22.6483 2.51 22.4633 2.945 22.0913 3.305C21.7192 3.665 21.2721 3.845 20.75 3.845ZM11.5 12.845C10.9779 12.845 10.5308 12.665 10.1588 12.305C9.78672 11.945 9.60172 11.51 9.60378 11C9.60583 10.49 9.79083 10.055 10.1588 9.695C10.5267 9.335 10.9738 9.155 11.5 9.155C12.0262 9.155 12.4733 9.335 12.8413 9.695C13.2092 10.055 13.3942 10.49 13.3963 11C13.3983 11.51 13.2133 11.945 12.8413 12.305C12.4692 12.665 12.0221 12.845 11.5 12.845ZM13.3963 20.6345V19.025C13.3963 18.872 13.4256 18.7235 13.4842 18.5795C13.5407 18.4365 13.6363 18.2995 13.7709 18.1685L21.618 10.571C21.7711 10.423 21.9284 10.323 22.0897 10.271C22.2511 10.219 22.413 10.193 22.5754 10.193C22.7521 10.193 22.9258 10.225 23.0964 10.289C23.2671 10.354 23.4217 10.4505 23.5605 10.5785L24.9865 11.996C25.1129 12.144 25.2096 12.2975 25.2764 12.4565C25.3421 12.6165 25.375 12.7765 25.375 12.9365C25.375 13.0955 25.3437 13.2565 25.281 13.4195C25.2183 13.5825 25.1201 13.7375 24.9865 13.8845L17.178 21.482C17.0433 21.613 16.902 21.7065 16.754 21.7625C16.6071 21.8185 16.4544 21.8465 16.2962 21.8465H14.6419C14.2894 21.8465 13.9939 21.73 13.7555 21.497C13.517 21.264 13.3978 20.9765 13.3978 20.6345M14.7607 20.519H16.2252L21.5717 15.3095L20.8472 14.597L20.1457 13.8635L14.7607 19.094V20.519ZM20.8472 14.597L20.1457 13.8635L21.5717 15.3095L20.8472 14.597Z" fill="#EA5959"/>
</svg>
