<svg width="26" height="26" viewBox="0 0 26 26" fill="none" xmlns="http://www.w3.org/2000/svg">
<path d="M20.3333 20C21.0405 20 21.7188 20.281 22.2189 20.781C22.719 21.2811 22.9999 21.9594 22.9999 22.6667C22.9999 23.3739 22.719 24.0522 22.2189 24.5523C21.7188 25.0524 21.0405 25.3333 20.3333 25.3333C19.626 25.3333 18.9477 25.0524 18.4476 24.5523C17.9475 24.0522 17.6666 23.3739 17.6666 22.6667C17.6666 21.9594 17.9475 21.2811 18.4476 20.781C18.9477 20.281 19.626 20 20.3333 20ZM20.3333 21.3333C19.9796 21.3333 19.6405 21.4738 19.3904 21.7239C19.1404 21.9739 18.9999 22.313 18.9999 22.6667C18.9999 23.0203 19.1404 23.3594 19.3904 23.6095C19.6405 23.8595 19.9796 24 20.3333 24C20.6869 24 21.026 23.8595 21.2761 23.6095C21.5261 23.3594 21.6666 23.0203 21.6666 22.6667C21.6666 22.313 21.5261 21.9739 21.2761 21.7239C21.026 21.4738 20.6869 21.3333 20.3333 21.3333ZM8.33325 20C9.0405 20 9.71877 20.281 10.2189 20.781C10.719 21.2811 10.9999 21.9594 10.9999 22.6667C10.9999 23.3739 10.719 24.0522 10.2189 24.5523C9.71877 25.0524 9.0405 25.3333 8.33325 25.3333C7.62601 25.3333 6.94773 25.0524 6.44763 24.5523C5.94754 24.0522 5.66659 23.3739 5.66659 22.6667C5.66659 21.9594 5.94754 21.2811 6.44763 20.781C6.94773 20.281 7.62601 20 8.33325 20ZM8.33325 21.3333C7.97963 21.3333 7.64049 21.4738 7.39044 21.7239C7.14039 21.9739 6.99992 22.313 6.99992 22.6667C6.99992 23.0203 7.14039 23.3594 7.39044 23.6095C7.64049 23.8595 7.97963 24 8.33325 24C8.68687 24 9.02601 23.8595 9.27606 23.6095C9.52611 23.3594 9.66659 23.0203 9.66659 22.6667C9.66659 22.313 9.52611 21.9739 9.27606 21.7239C9.02601 21.4738 8.68687 21.3333 8.33325 21.3333ZM22.9999 4H4.69325L8.09325 12H18.9999C19.4399 12 19.8266 11.7867 20.0666 11.4667L24.0666 6.13333C24.2399 5.90667 24.3333 5.62667 24.3333 5.33333C24.3333 4.97971 24.1928 4.64057 23.9427 4.39052C23.6927 4.14048 23.3535 4 22.9999 4ZM18.9999 13.3333H8.15992L7.13325 15.4133L6.99992 16C6.99992 16.3536 7.14039 16.6928 7.39044 16.9428C7.64049 17.1929 7.97963 17.3333 8.33325 17.3333H22.9999V18.6667H8.33325C7.62601 18.6667 6.94773 18.3857 6.44763 17.8856C5.94754 17.3855 5.66659 16.7072 5.66659 16C5.66619 15.5476 5.7809 15.1025 5.99992 14.7067L6.95992 12.7467L2.11992 1.33333H0.333252V0H2.99992L4.13325 2.66667H22.9999C23.7072 2.66667 24.3854 2.94762 24.8855 3.44772C25.3856 3.94781 25.6666 4.62609 25.6666 5.33333C25.6666 6 25.4399 6.56 25.0666 7.01333L21.1866 12.2C20.7066 12.88 19.9066 13.3333 18.9999 13.3333Z" fill="#D8BD64"/>
</svg>
