<svg width="40" height="40" viewBox="0 0 40 40" fill="none" xmlns="http://www.w3.org/2000/svg">
<path d="M17.4512 36.6668C10.796 36.6668 7.46846 36.6668 5.40098 34.7142C3.3335 32.7617 3.3335 29.6188 3.3335 23.3335V16.6668C3.3335 10.3814 3.3335 7.23875 5.40098 5.28611C7.46846 3.3335 10.796 3.3335 17.4512 3.3335H19.2158C25.871 3.3335 29.1985 3.3335 31.266 5.28611C33.3335 7.23875 33.3335 10.3814 33.3335 16.6668" stroke="black" stroke-width="1.5" stroke-linecap="round"/>
<path d="M11.6665 11.6665H24.9998" stroke="black" stroke-width="1.5" stroke-linecap="round"/>
<path d="M11.6665 20H21.6665" stroke="black" stroke-width="1.5" stroke-linecap="round"/>
<path d="M23.3335 36.6665C26.3977 32.0862 33.5315 31.8362 36.6668 36.6665M33.3335 24.881C33.3335 26.6563 31.8412 28.0955 30.0002 28.0955C28.1592 28.0955 26.6668 26.6563 26.6668 24.881C26.6668 23.1057 28.1592 21.6665 30.0002 21.6665C31.8412 21.6665 33.3335 23.1057 33.3335 24.881Z" stroke="black" stroke-width="1.5" stroke-linecap="round"/>
</svg>
