<svg width="44" height="44" viewBox="0 0 44 44" fill="none" xmlns="http://www.w3.org/2000/svg">
<path d="M21.0833 40.3332C13.7373 40.3332 10.0642 40.3332 7.78213 37.6483C5.5 34.9635 5.5 30.6422 5.5 21.9998C5.5 13.3574 5.5 9.03621 7.78213 6.35137C10.0642 3.6665 13.7373 3.6665 21.0833 3.6665C28.4293 3.6665 32.1024 3.6665 34.3845 6.35137C36.2215 8.51259 36.58 11.7342 36.6498 17.4165" stroke="#222222" stroke-width="1.75" stroke-linecap="round" stroke-linejoin="round"/>
<path d="M14.6665 14.6665H27.4998M14.6665 23.8332H20.1665" stroke="#222222" stroke-width="1.75" stroke-linecap="round" stroke-linejoin="round"/>
<path d="M35.95 33.1932C37.4954 32.0683 38.4998 30.2452 38.4998 28.1875C38.4998 24.7702 35.7297 22 32.3123 22H31.854C28.4367 22 25.6665 24.7702 25.6665 28.1875C25.6665 30.2452 26.671 32.0683 28.2163 33.1932M35.95 33.1932C34.9291 33.9365 33.6719 34.375 32.3123 34.375H31.854C30.4944 34.375 29.2373 33.9365 28.2163 33.1932M35.95 33.1932L37.0185 36.5574C37.4261 37.8405 37.6299 38.4822 37.5742 38.8817C37.4581 39.7131 36.78 40.3304 35.9794 40.3333C35.5947 40.3348 35.0183 40.0323 33.8657 39.4275C33.3715 39.1681 33.1243 39.0383 32.8715 38.962C32.3563 38.8067 31.81 38.8067 31.2948 38.962C31.042 39.0383 30.7949 39.1681 30.3006 39.4275C29.148 40.0323 28.5716 40.3348 28.187 40.3333C27.3864 40.3304 26.7082 39.7131 26.5922 38.8817C26.5364 38.4822 26.7403 37.8405 27.1478 36.5574L28.2163 33.1932" stroke="#222222" stroke-width="1.75"/>
</svg>
