<svg width="163" height="164" viewBox="0 0 163 164" fill="none" xmlns="http://www.w3.org/2000/svg">
<path fill-rule="evenodd" clip-rule="evenodd" d="M64.6882 158.153C64.6882 158.153 53.4803 157.951 52.9522 157.795C52.4241 157.638 53.9106 155.304 54.2562 153.557C54.6017 151.809 56.9131 141.88 56.9131 141.88C55.6598 141.879 54.4073 141.945 53.1608 142.075C51.5308 142.271 48.1241 141.166 46.4941 138.016C44.8641 134.867 44.5381 127.963 44.5381 126.052C44.5381 124.142 45.1217 112.246 45.1217 112.246C45.1217 112.246 43.9024 111.196 41.9921 108.605C40.0817 106.013 37.6954 105.055 39.7981 102.58C41.1409 101.036 42.3227 99.3597 43.3254 97.5761C43.5927 97.0676 50.8234 81.6576 54.5365 78.4921C58.2497 75.3266 62.1552 74.642 66.1976 73.7325C70.24 72.823 74.077 71.5092 74.077 71.5092C74.9806 69.8947 75.6928 68.1803 76.1992 66.4008C77.0566 63.4179 77.4804 56.8098 77.4804 56.8098C76.5457 55.5288 75.7584 54.1466 75.1332 52.6892C74.2172 50.4659 73.2685 47.2189 73.2685 47.2189C73.2685 47.2189 72.8088 48.3469 70.5138 45.6574C69.621 44.6078 68.9948 43.3582 68.6883 42.0148C68.3818 40.6714 68.4042 39.2739 68.7534 37.941C69.1053 36.7785 69.6038 35.6655 70.2367 34.6288C69.1577 33.7267 68.3065 32.583 67.752 31.2905C67.1975 29.998 66.9554 28.593 67.0452 27.1895C67.332 22.319 67.5244 21.6279 68.8121 20.1349C69.4756 19.3294 70.233 18.606 71.068 17.98C71.068 17.98 70.5529 14.3125 72.2546 11.7273C73.9564 9.14213 77.0208 8.26193 79.4266 8.34017C81.8325 8.41841 87.0876 10.3875 89.0013 9.51377C90.9149 8.64009 92.8774 6.67105 95.3028 5.97341C97.7283 5.27577 100.268 5.91799 100.861 7.89029C101.454 9.86259 100.597 11.7632 102.139 12.3858C103.681 13.0085 106.53 12.5977 108.424 14.6678C110.318 16.7379 111.743 19.2514 110.256 21.9441C108.77 24.6369 105.598 26.1495 105.598 26.1495C105.272 27.3077 105.184 28.5195 105.337 29.7127C105.637 31.4079 105.422 33.5791 104.62 34.6288C103.818 35.6785 102.012 36.5229 102.012 36.5229C102.003 38.0316 101.74 39.528 101.236 40.9499C100.411 43.17 99.606 46.8408 98.0934 47.232C96.5808 47.6232 95.8701 49.3901 95.0844 51.1081C94.2988 52.8261 92.6785 55.8253 92.6785 55.8253C92.6785 55.8253 92.7111 58.0584 93.0274 62.6713C93.3436 67.2842 95.3322 72.0797 95.3322 72.0797C95.3322 72.0797 102.322 73.9379 106.305 75.4277C110.289 76.9175 114.651 78.7725 115.759 83.092C116.868 87.4115 118.99 93.7782 120.385 96.6959C121.781 99.6136 123.094 102.202 123.094 102.202L121.79 105.615C121.79 105.615 121.569 105.39 121.464 109.778C121.36 114.166 122.136 120.331 122.002 121.84C121.869 123.35 121.507 130.091 120.046 133.159C118.586 136.227 118.586 137.501 116.154 138.567C113.722 139.633 109.164 140.197 109.164 140.197C109.164 140.197 109.569 144.647 109.507 145.57C109.445 146.492 110.24 157.915 110.24 157.915C110.24 157.915 100.617 158.952 94.6802 158.271C88.7437 157.589 64.6882 158.153 64.6882 158.153Z" fill="white"/>
<path d="M69.6043 117.002C69.3304 116.768 69.0631 116.51 68.7664 116.302L67.7037 115.542C67.2016 115.183 66.6703 114.864 66.1487 114.528C64.9185 113.703 63.6417 112.95 62.3247 112.272C61.7081 111.953 61.0722 111.672 60.4208 111.431C59.9905 111.281 59.5569 111.105 59.1168 110.998C58.8169 110.913 58.5137 110.831 58.204 110.763C58.2736 110.085 58.3562 109.41 58.4518 108.738C58.6507 107.343 58.8495 105.951 59.1038 104.566C59.3842 103.116 59.6743 101.666 59.9742 100.217C60.3491 98.5085 60.7338 96.8003 61.0794 95.0888C61.1029 94.9276 61.0945 94.7633 61.0546 94.6054C61.0146 94.4475 60.944 94.299 60.8467 94.1684C60.7493 94.0377 60.6272 93.9276 60.4873 93.8441C60.3474 93.7607 60.1925 93.7056 60.0313 93.6821C59.8701 93.6585 59.7058 93.667 59.5479 93.7069C59.39 93.7468 59.2415 93.8175 59.1109 93.9148C58.9802 94.0121 58.8701 94.1342 58.7866 94.2741C58.7032 94.414 58.6481 94.569 58.6246 94.7302C58.4714 95.5289 58.2986 96.3276 58.1356 97.123C57.7574 98.753 57.3825 100.383 56.9587 101.98C56.5349 103.578 56.1176 105.12 55.7199 106.698C55.332 108.227 54.9799 109.762 54.6506 111.311C53.8585 111.102 53.0761 110.867 52.2937 110.629C51.2602 110.303 50.2268 110 49.1999 109.671C48.2713 109.36 47.3614 108.997 46.4746 108.582C45.944 108.299 45.4293 107.988 44.9326 107.65C43.9741 106.959 43.0565 106.213 42.1844 105.416L42.142 105.371L42.3572 105.012C42.7745 104.298 43.1233 103.552 43.521 102.831C43.9481 102.059 44.3686 101.283 44.7761 100.497C45.1836 99.7115 45.6172 99.0301 46.041 98.2966C46.5039 97.4979 46.9049 96.6666 47.345 95.8451C47.7394 95.1051 48.1372 94.3683 48.5153 93.625C48.8935 92.8817 49.2325 92.0733 49.5846 91.2941C49.9106 90.6682 50.2366 90.0651 50.5626 89.4457C50.7354 89.1034 50.8886 88.7546 51.094 88.4221C51.1885 88.2591 51.2733 88.0961 51.3809 87.9233L51.6547 87.5093C51.8894 87.2061 52.1274 86.9127 52.3784 86.6226C52.6294 86.3324 52.9228 85.9999 53.1739 85.6772C53.4249 85.3544 53.6922 84.9958 53.9595 84.6666C54.2268 84.3373 54.4974 84.0145 54.7778 83.7081C54.9995 83.4897 55.2146 83.2778 55.4493 83.0757C55.6841 82.8735 55.9709 82.6421 56.2383 82.4237L56.5936 82.1596C57.2032 81.7065 57.7868 81.224 58.3605 80.7317C58.9343 80.2395 59.5211 79.7537 60.1372 79.3201L60.3524 79.1767L60.2481 79.2452L60.3785 79.1604L60.4632 79.1017C60.8218 78.8768 61.1902 78.6714 61.5684 78.4823C62.2986 78.1563 63.0354 77.8597 63.7591 77.5271C64.4828 77.1946 65.1902 76.8751 65.927 76.5785C66.3214 76.4253 66.7192 76.2753 67.1104 76.1188C67.5016 75.9623 67.9025 75.7928 68.3003 75.6429C69.1283 75.3332 69.9661 75.0658 70.8137 74.8116C71.5961 74.5801 72.3785 74.3356 73.1511 74.0781C73.5782 73.9346 74.002 73.7847 74.4193 73.6184C75.0116 74.2576 75.6793 74.8225 76.4079 75.3006C77.4353 75.9664 78.512 76.5527 79.6288 77.0544C80.4535 77.4522 81.3077 77.7912 82.1553 78.1368C83.0181 78.5047 83.9144 78.7885 84.8317 78.9844C85.5489 79.1213 86.2661 79.2354 86.9898 79.3267C87.7935 79.4445 88.6034 79.5152 89.4153 79.5386H89.6044C90.3399 79.5512 91.075 79.4901 91.7983 79.356C92.6492 79.1838 93.4853 78.9451 94.2988 78.6421C95.7434 78.0911 97.1429 77.4284 98.4846 76.66C98.7356 76.5198 98.9834 76.3698 99.2311 76.2199L99.7951 76.2916C100.31 76.3601 100.822 76.435 101.337 76.4905L101.529 76.5589L102.38 76.8849L102.612 76.9892C104.059 77.6678 105.465 78.4297 106.824 79.2712C107.358 79.6559 107.873 80.0602 108.379 80.4807C108.741 80.8067 109.096 81.1327 109.432 81.5141C109.647 81.7717 109.852 82.039 110.045 82.3128C110.508 83.0575 110.928 83.8281 111.303 84.6209C111.766 85.5989 112.242 86.5769 112.705 87.5549C113.168 88.5329 113.588 89.537 113.976 90.5476C114.563 92.0831 115.104 93.6381 115.733 95.1572C116.362 96.6764 116.946 98.1923 117.516 99.7212C117.784 100.469 118.087 101.201 118.426 101.918C118.625 102.319 118.82 102.711 119.042 103.099C119.264 103.487 119.456 103.803 119.671 104.155C120.089 104.833 120.512 105.508 120.975 106.166C120.641 106.466 120.332 106.793 120.053 107.144C117.249 109.619 113.973 111.819 110.325 112.771C109.859 113.006 109.445 113.205 109.083 113.371C109.06 113.253 109.04 113.136 109.018 113.016C108.949 112.566 108.881 112.109 108.809 111.659C108.731 111.148 108.639 110.642 108.545 110.134C108.46 109.674 108.346 109.218 108.248 108.761C108.15 108.305 108.072 107.868 107.984 107.418C107.821 106.391 107.681 105.364 107.547 104.331C107.414 103.297 107.29 102.205 107.172 101.139C107.14 100.419 107.107 99.6984 107.065 98.978C107.023 98.2575 106.99 97.5892 106.918 96.9013C106.895 96.2853 106.779 95.6764 106.573 95.0953C106.523 94.9302 106.423 94.7849 106.286 94.6798C106.149 94.5747 105.983 94.515 105.811 94.5093C105.638 94.5035 105.468 94.5519 105.325 94.6477C105.182 94.7434 105.072 94.8817 105.011 95.0431C104.952 95.0432 104.893 95.0497 104.835 95.0627C104.527 95.1252 104.254 95.3031 104.072 95.5599C103.89 95.8168 103.813 96.1333 103.857 96.4449C103.906 97.0252 103.906 97.6087 103.919 98.1923C103.903 100.566 103.838 102.932 103.759 105.306C103.701 107.164 103.652 109.025 103.629 110.883C102.547 110.844 101.458 110.844 100.369 110.857C99.3909 110.857 98.4129 110.857 97.4349 110.955C96.6623 111.02 95.8896 111.102 95.117 111.17C93.813 111.258 92.5286 111.258 91.2409 111.389C90.0353 111.52 88.838 111.719 87.6549 111.985C86.4259 112.253 85.1903 112.543 83.9939 112.927C82.7421 113.332 81.5391 113.85 80.3231 114.342C79.244 114.754 78.1426 115.104 77.024 115.392C75.9287 115.653 74.8268 115.871 73.7314 116.126C73.0305 116.289 72.3394 116.487 71.6515 116.703C71.0745 116.873 70.5093 117.081 69.9596 117.325L69.6336 117.042M56.0459 158.052C56.1307 157.482 56.2154 156.908 56.3035 156.338C56.5349 154.825 56.7566 153.309 57.0467 151.81C57.2 151.024 57.3499 150.241 57.5194 149.462C57.5912 149.136 57.6596 148.81 57.7444 148.484C57.8422 148.103 57.94 147.721 58.0345 147.337C58.3801 145.971 58.6865 144.598 58.9734 143.223L59.2994 143.154C60.1405 142.985 60.9848 142.773 61.8129 142.538C63.5667 142.04 65.3119 141.516 67.0484 140.964C68.6197 140.465 70.2008 139.986 71.7852 139.536C73.3696 139.086 74.8822 138.584 76.4209 138.072C77.2066 137.811 78.0085 137.563 78.7746 137.237C79.5407 136.911 80.346 136.54 81.1153 136.142C82.0379 135.666 82.9768 135.229 83.9254 134.815C84.3753 135.167 84.8187 135.526 85.2816 135.855C86.5002 136.687 87.7734 137.437 89.0925 138.098C90.3411 138.75 91.5278 139.536 92.8318 140.093C93.4764 140.361 94.1361 140.592 94.8073 140.784C95.4143 140.96 96.0117 141.168 96.5971 141.407C97.6794 141.915 98.7095 142.558 99.8571 142.936C101.005 143.314 102.119 143.47 103.247 143.761C103.844 143.937 104.431 144.142 105.027 144.318C105.07 147.167 105.08 150.017 105.145 152.866C105.181 154.329 105.236 155.8 105.321 157.26C105.321 157.482 105.35 157.707 105.363 157.929C102.547 157.951 99.7299 157.987 96.9165 157.968H97.3827C94.8236 157.948 92.2678 157.984 89.7054 158C88.0591 158 86.4096 158 84.7633 157.977C83.117 157.955 81.425 157.961 79.7559 157.938C78.0868 157.915 76.4763 157.85 74.8366 157.827C73.9466 157.827 73.0533 157.795 72.1634 157.827C71.4038 157.847 70.6507 157.912 69.8814 157.964C68.3687 158.069 66.8528 158.14 65.3174 158.16H65.3467C63.9188 158.16 62.4877 158.16 61.0565 158.18C59.3776 158.18 57.6987 158.18 56.0231 158.062" fill="#F5EDD9"/>
<path d="M99.0388 112.742C99.0081 112.502 99.0728 112.259 99.2192 112.067C99.3655 111.874 99.5817 111.746 99.8212 111.712C101.009 111.541 102.207 111.454 103.407 111.454C103.313 106.646 102.687 101.782 103.371 96.9992C103.655 95.8484 104.291 94.4629 105.569 94.2151C106.09 94.1565 106.726 94.238 107.045 94.7009C107.371 95.0106 107.528 95.6789 106.983 95.8517C106.923 95.8647 106.861 95.8647 106.801 95.8517C106.758 95.5794 106.683 95.3134 106.576 95.0595C106.506 94.8758 106.378 94.7199 106.212 94.6157C106.045 94.5115 105.849 94.4647 105.653 94.4825C105.508 94.5148 105.372 94.5822 105.259 94.6788C105.145 94.7753 105.057 94.8982 105.001 95.0367C104.858 95.3597 104.759 95.7008 104.708 96.0505C104.643 96.4124 104.571 96.771 104.522 97.1361V97.0416C104.428 97.6642 104.359 98.2901 104.297 98.9161C104.258 99.2747 104.219 99.6398 104.183 100.002V99.9593C104.185 99.9733 104.185 99.9876 104.183 100.002V100.051C104.181 100.042 104.181 100.033 104.183 100.024C104.085 101.107 104.01 102.186 103.961 103.284C103.912 104.383 103.851 105.41 103.811 106.473C103.756 107.894 103.707 109.319 103.697 110.743V112.129C103.697 112.425 103.681 112.722 103.671 113.019C103.234 113.023 102.798 113.065 102.367 113.143C101.803 113.214 100.897 113.553 100.17 113.553C99.6321 113.553 99.192 113.368 99.0583 112.755" fill="#F5EDD9"/>
<path d="M74.2824 117.98C73.5391 117.932 72.7665 117.915 72.0786 117.599C71.2017 117.211 71.1658 116.243 72.0982 115.901C74.1096 115.092 76.2873 114.818 78.4161 114.492C78.3508 114.353 78.3136 114.202 78.3068 114.049C78.3 113.895 78.3236 113.741 78.3763 113.597C78.429 113.452 78.5098 113.32 78.614 113.206C78.7181 113.093 78.8437 113.002 78.9833 112.937C79.0379 112.911 79.0946 112.889 79.1528 112.872C80.685 112.523 82.1879 112.057 83.7168 111.744C84.4494 111.597 85.1932 111.513 85.9401 111.493C86.5706 111.268 87.2182 111.093 87.8766 110.971C90.7519 110.417 93.6663 110.033 96.5775 109.723C98.4581 109.567 100.35 109.614 102.221 109.863C102.718 109.896 103.211 109.983 103.691 110.121V112.311H103.616C102.873 112.422 102.11 112.406 101.36 112.452C101.325 112.651 101.249 112.841 101.137 113.009C101.024 113.177 100.878 113.321 100.708 113.43C99.5311 115.06 97.3306 114.994 95.5376 115.353C94.0021 115.552 92.5319 115.93 90.9964 116.077C90.1586 116.158 89.324 116.269 88.496 116.425C86.302 116.751 84.0754 116.862 81.888 117.254C79.8512 117.736 77.7673 117.99 75.6744 118.013C75.2082 118.013 74.7453 117.997 74.2791 117.967M74.7355 116.543C75.1789 116.543 75.619 116.543 76.0624 116.513H75.9613C76.4067 116.47 76.8495 116.403 77.2881 116.315L77.4968 116.272C76.5677 116.311 75.6516 116.448 74.7355 116.536M108.578 110.329C108.7 110.424 108.785 110.56 108.816 110.711C108.848 110.863 108.825 111.021 108.75 111.157V111.294C108.698 110.968 108.64 110.642 108.581 110.316" fill="#F5EDD9"/>
<path d="M68.7241 119.842C67.9352 119.816 66.7942 119.366 66.8822 118.414C67.0843 117.436 68.3427 117.547 69.0892 117.241C69.1561 117.044 69.2751 116.869 69.4336 116.735C69.592 116.6 69.784 116.511 69.989 116.478C71.5081 115.8 73.1772 115.868 74.7877 115.597C75.8083 115.337 76.8421 115.131 77.8847 114.981C77.9717 114.981 78.0578 114.999 78.138 115.032C78.2182 115.066 78.2908 115.116 78.3516 115.178C78.4123 115.24 78.46 115.314 78.4918 115.395C78.5236 115.476 78.5389 115.563 78.5367 115.65C78.5339 115.779 78.4943 115.904 78.4226 116.011C79.2669 115.848 80.1113 115.685 80.9654 115.594C81.222 115.559 81.4823 115.623 81.6935 115.773C81.9047 115.923 82.0511 116.147 82.1029 116.401C82.1547 116.655 82.1081 116.919 81.9726 117.139C81.837 117.36 81.6226 117.521 81.3729 117.589C79.456 118.293 77.4348 118.606 75.4266 118.913C73.187 119.167 70.9735 119.731 68.7273 119.842" fill="#F5EDD9"/>
<path d="M68.7045 119.464C68.0851 119.415 67.5765 118.965 67.0419 118.691C66.2171 118.261 65.5977 117.553 64.8446 117.022C63.4135 116.197 62.0443 115.271 60.5838 114.499C60.1307 114.258 59.6645 114.036 59.2081 113.798C58.9212 113.648 58.5561 113.557 58.3931 113.247C58.1739 113.154 57.986 113 57.8519 112.804C57.0402 112.419 57.6433 111.35 57.6889 110.688C58.1551 107.878 58.442 105.022 59.1853 102.284C59.6156 100.148 59.8666 97.9869 60.1633 95.8288C60.3556 94.0782 60.5903 92.2624 61.5879 90.7628C61.689 90.5969 61.8439 90.4706 62.0267 90.4049C62.2096 90.3392 62.4094 90.338 62.593 90.4016C62.7766 90.4652 62.9329 90.5898 63.0359 90.7545C63.1389 90.9193 63.1824 91.1143 63.1592 91.3072C62.6824 93.3241 62.3318 95.3689 62.1095 97.4295C61.4771 101.152 60.5708 104.81 59.6189 108.458C60.0394 109.462 59.8471 110.587 59.5732 111.601C60.7544 111.93 61.8611 112.483 62.8332 113.231C63.508 113.723 64.0329 114.411 64.7892 114.76C66.0932 115.324 67.1397 116.298 68.2611 117.152C68.6694 117.424 69.0534 117.731 69.4086 118.069C69.5482 118.255 69.6084 118.489 69.576 118.72C69.5436 118.951 69.4214 119.16 69.2359 119.301C69.0855 119.412 68.9044 119.473 68.7175 119.477" fill="#F5EDD9"/>
<path d="M69.438 118.799C68.9221 118.669 68.4504 118.403 68.0721 118.029C66.1878 116.911 64.4535 115.65 62.68 114.381C61.5097 113.681 60.398 112.905 59.2831 112.122C59.1829 112.066 59.095 111.99 59.0243 111.899C58.9536 111.808 58.9016 111.705 58.8713 111.594C58.841 111.483 58.833 111.367 58.8477 111.253C58.8624 111.139 58.8996 111.029 58.9571 110.929C58.9906 110.868 59.0323 110.812 59.081 110.763C59.081 109.765 60.385 109.733 60.5643 110.685C60.7091 110.612 60.8747 110.592 61.0328 110.627C61.1909 110.663 61.3318 110.752 61.4314 110.88C61.4893 110.955 61.5313 111.04 61.5549 111.132C61.5784 111.223 61.583 111.318 61.5684 111.412C64.235 112.947 66.9213 114.453 69.5847 115.976C69.98 116.152 70.335 116.407 70.6279 116.725C71.3321 117.583 70.5366 118.991 69.4347 118.789M59.0973 142.613C59.2114 142.039 59.319 141.462 59.4233 140.885C60.1731 140.618 60.9587 140.422 61.7053 140.233C63.4127 139.81 65.0656 139.19 66.6311 138.388C68.378 137.64 70.1689 136.998 71.9938 136.468C73.7934 135.738 75.5309 134.874 77.3044 134.088C78.5367 133.602 79.7461 132.963 81.1153 133.11C81.4176 133.137 81.722 133.126 82.0216 133.078C82.7127 132.999 83.4169 132.921 83.7364 133.645C84.1993 134.981 82.0216 135.751 81.1544 136.364C79.3484 137.436 77.3533 138.082 75.3582 138.704C72.4242 139.79 69.4673 140.784 66.4649 141.638C64.8349 142.382 63.0517 142.616 61.2945 142.942C60.4828 143.17 59.6645 143.399 58.8821 143.676C58.9571 143.327 59.0288 142.981 59.0973 142.629" fill="#F5EDD9"/>
<path d="M101.441 141.958C96.8383 141.113 92.157 140.562 87.7755 138.831C86.9094 138.542 86.0877 138.134 85.3338 137.619C84.5351 137.077 83.8212 136.399 82.9573 135.959C81.9943 136.305 81.0593 136.723 80.1602 137.211C80.0298 137.408 79.8266 137.546 79.595 137.594C79.3634 137.641 79.1223 137.595 78.9246 137.465L78.892 137.446C78.7891 137.362 78.7062 137.256 78.6492 137.137C78.5922 137.017 78.5627 136.886 78.5627 136.753C78.5627 136.62 78.5922 136.489 78.6492 136.37C78.7062 136.25 78.7891 136.144 78.892 136.06C79.261 135.816 79.657 135.614 80.0721 135.46C80.7861 135.164 81.5066 134.893 82.2172 134.587C82.2407 134.514 82.269 134.444 82.302 134.375C81.3631 133.283 83.0974 132.546 84.0037 132.504C84.5123 132.523 84.9817 132.742 85.4805 132.761C86.5432 133.038 87.3778 133.811 88.3428 134.303C89.5946 134.91 90.9671 135.206 92.2548 135.698C94.0771 136.321 95.994 136.615 97.8196 137.227C99.8343 137.928 101.898 138.531 103.821 139.467C104.239 139.669 104.714 139.881 104.952 140.279C104.952 140.644 104.952 141.009 104.972 141.374C104.873 141.563 104.724 141.721 104.542 141.831C104.071 142.023 103.566 142.115 103.058 142.101C102.513 142.088 101.969 142.043 101.428 141.967M91.3909 137.537L92.0429 137.739C91.8114 137.648 91.5799 137.55 91.3485 137.452C91.3608 137.48 91.3717 137.508 91.3811 137.537" fill="#F5EDD9"/>
<path d="M98.276 141.72C96.1993 141.664 94.1814 141.048 92.2808 140.25C91.3908 140.051 90.4878 139.904 89.6174 139.633C88.6166 139.2 89.174 137.7 90.2205 137.984C90.6573 136.22 93.4968 137.752 94.5824 138.039C96.2482 138.675 98.0804 139.089 99.5539 140.1C99.7146 140.254 99.8138 140.462 99.833 140.685C99.8522 140.907 99.7901 141.129 99.6582 141.309C99.3322 141.73 98.7552 141.72 98.276 141.72ZM105.083 152.677C105.083 152.455 105.109 152.237 105.119 152.025L105.138 152.872C105.171 154.336 105.226 155.806 105.314 157.267L105.353 157.935H104.838C104.789 156.18 104.871 154.423 105.083 152.68M104.111 140.559C104.042 140.501 103.995 140.422 103.977 140.334C103.958 140.245 103.97 140.153 104.011 140.073C104.051 139.992 104.117 139.927 104.199 139.889C104.28 139.851 104.372 139.841 104.46 139.862C104.618 139.911 104.779 139.947 104.943 139.969C104.943 140.315 104.943 140.657 104.962 141.003C104.666 140.88 104.382 140.731 104.111 140.559Z" fill="#F5EDD9"/>
<path d="M103.251 146.548C103.05 146.49 102.868 146.379 102.726 146.225C102.584 146.072 102.487 145.882 102.446 145.677C102.324 145.667 102.204 145.638 102.09 145.593C101.822 145.478 101.608 145.266 101.49 144.999C101.235 145.025 100.979 144.963 100.763 144.823C100.485 144.901 100.19 144.886 99.9209 144.781C99.6521 144.675 99.4249 144.485 99.2735 144.24C98.9668 144.302 98.6481 144.249 98.3777 144.091C98.1073 143.934 97.9041 143.683 97.8065 143.386C97.5256 143.368 97.2477 143.318 96.9785 143.236C96.8517 143.507 96.6338 143.725 96.3627 143.852C96.0916 143.979 95.7846 144.006 95.4952 143.93C93.8652 143.408 94.6541 141.016 95.9907 140.624C96.6427 140.338 97.3632 140.624 98.0021 140.836C98.1635 140.843 98.3252 140.833 98.4846 140.807C98.7627 140.743 99.0537 140.764 99.3192 140.869C99.4889 140.794 99.6717 140.754 99.8571 140.752C100.055 140.752 100.25 140.793 100.431 140.872C100.554 140.774 100.696 140.702 100.848 140.66C100.999 140.618 101.158 140.607 101.314 140.628C101.373 140.635 101.431 140.647 101.487 140.664C101.597 140.389 101.811 140.169 102.082 140.053C102.353 139.936 102.66 139.932 102.935 140.041C103.074 140.096 103.2 140.179 103.306 140.285C103.54 140.232 103.784 140.247 104.01 140.328C104.122 140.191 104.264 140.082 104.426 140.011C104.587 139.939 104.763 139.907 104.939 139.917C104.956 140.497 104.962 141.078 104.972 141.655V141.56C104.972 142.127 104.992 142.695 105.001 143.265C105.021 144.321 105.034 145.381 105.044 146.437C104.931 146.384 104.834 146.304 104.759 146.205C104.685 146.105 104.636 145.989 104.617 145.866C104.524 146.076 104.374 146.256 104.184 146.383C103.993 146.511 103.77 146.582 103.541 146.587C103.443 146.587 103.345 146.573 103.251 146.545" fill="#F5EDD9"/>
<path d="M97.0339 72.6013C97.1284 72.572 97.223 72.5524 97.3142 72.5328L97.1512 72.6339L97.0339 72.6013Z" fill="#AFD2FF"/>
<path d="M73.7999 32.6337C73.655 32.5713 73.5343 32.4634 73.4561 32.3264C73.3779 32.1894 73.3463 32.0306 73.3663 31.8741C73.4054 31.4927 73.7607 31.3199 74.0476 31.1341C75.0256 30.4299 76.1536 29.8627 77.3728 29.9083C78.3834 29.9344 79.231 30.5603 79.9124 31.2515C80.0312 31.3726 80.1025 31.5325 80.1132 31.7018C80.124 31.8712 80.0735 32.0388 79.971 32.174C79.3973 32.8619 78.667 32.0371 78.1161 31.7665C77.585 31.5569 77.0096 31.4846 76.4432 31.5564C75.8768 31.6282 75.3376 31.8418 74.8757 32.1773C74.7797 32.2324 74.7017 32.3138 74.6507 32.412C74.553 32.5374 74.4169 32.6272 74.2632 32.6679C74.1095 32.7085 73.9468 32.6976 73.7999 32.637M91.6581 32.7511C90.3541 31.5351 89.4805 31.2612 87.9254 32.3207C87.7615 32.4157 87.5666 32.4419 87.3833 32.3937C87.2001 32.3454 87.0434 32.2266 86.9474 32.0632C86.491 31.1471 87.7592 30.7951 88.3688 30.4756C88.7709 30.2899 89.2058 30.1856 89.6484 30.1688C90.0909 30.152 90.5325 30.223 90.9475 30.3778C91.5995 30.6679 93.2751 31.923 92.5416 32.6924C92.426 32.8055 92.2738 32.8737 92.1124 32.8844C91.9509 32.8952 91.791 32.8479 91.6614 32.7511M79.1169 36.4642C79.1744 36.5322 79.2174 36.6112 79.2432 36.6964C79.269 36.7817 79.277 36.8713 79.2669 36.9597C79.2469 37.0971 79.1804 37.2234 79.0785 37.3177C78.9765 37.4119 78.8454 37.4683 78.7068 37.4775C78.5683 37.4866 78.4309 37.448 78.3174 37.368C78.204 37.288 78.1214 37.1715 78.0835 37.038C78.016 36.7619 77.906 36.4979 77.7575 36.2556C77.2133 36.6884 76.7053 37.1649 76.2383 37.6802C76.1982 37.7436 76.1459 37.7986 76.0845 37.8418C76.0231 37.885 75.9537 37.9157 75.8804 37.932C75.8071 37.9484 75.7313 37.9501 75.6574 37.9371C75.5834 37.9241 75.5127 37.8966 75.4494 37.8562L75.4201 37.8334C75.3059 37.7439 75.2313 37.6132 75.2124 37.4694C75.1935 37.3255 75.2318 37.18 75.319 37.064C75.971 36.3925 76.6002 35.5938 77.5032 35.2743C78.3052 35.0526 78.7518 35.9035 79.1137 36.4642M92.0298 36.8195C92.0749 36.9337 92.0732 37.0611 92.025 37.174C91.9768 37.2869 91.8859 37.3763 91.7722 37.4226C91.7177 37.4455 91.6592 37.4573 91.6 37.4574C91.5409 37.4575 91.4823 37.4458 91.4277 37.423C91.3732 37.4003 91.3236 37.3669 91.282 37.3249C91.2404 37.2828 91.2076 37.233 91.1854 37.1781C90.9344 36.7054 90.6997 36.1675 90.2303 35.8741C89.6865 36.199 89.2042 36.6173 88.8056 37.1097C88.7733 37.1488 88.7334 37.1812 88.6884 37.2049C88.6435 37.2286 88.5942 37.2431 88.5436 37.2476C88.493 37.2522 88.442 37.2467 88.3935 37.2314C88.345 37.2161 88.3001 37.1913 88.2612 37.1586C88.1872 37.0963 88.1392 37.0086 88.1266 36.9127C88.1139 36.8168 88.1375 36.7196 88.1928 36.6402C88.9197 35.8676 89.8847 34.1724 91.0127 35.2743C91.4532 35.7161 91.7993 36.243 92.0298 36.8228M87.4071 45.8074C87.5544 45.8481 87.6827 45.9394 87.7696 46.0651C87.8565 46.1909 87.8964 46.3431 87.8825 46.4954C87.8685 46.6476 87.8015 46.79 87.6931 46.8979C87.5848 47.0057 87.442 47.072 87.2897 47.0853C86.1392 48.0281 84.6813 48.5134 83.1952 48.448C82.5512 48.4225 81.9108 48.3396 81.2816 48.2002C81.1807 48.1849 81.0899 48.1304 81.0289 48.0487C80.9679 47.9669 80.9415 47.8644 80.9556 47.7634C80.9624 47.7137 80.9789 47.6658 81.0042 47.6225C81.0296 47.5793 81.0632 47.5414 81.1031 47.5111C81.1431 47.4809 81.1886 47.4587 81.2372 47.4461C81.2857 47.4334 81.3362 47.4305 81.3859 47.4374C81.8912 47.5319 82.403 47.5841 82.9116 47.6493C84.0721 47.6493 85.3468 47.3233 86.2172 46.5115C86.1661 46.4219 86.142 46.3195 86.1478 46.2166C86.1536 46.1136 86.189 46.0145 86.2498 45.9312C86.5139 45.5596 87.042 45.7161 87.4071 45.8171M84.5807 43.7242C84.8871 44.6761 83.1984 44.7511 82.6019 44.5914C82.0672 44.5034 81.0338 43.4797 81.9988 43.258C82.2693 43.258 82.3541 43.5449 82.5953 43.6036C83.2473 43.9296 84.1569 42.9288 84.5774 43.7242M67.0028 118.16C67.3842 118.456 68.3068 118.747 67.9188 119.366C67.8739 119.416 67.8196 119.457 67.7589 119.486C67.6982 119.515 67.6323 119.532 67.5651 119.536C67.4979 119.539 67.4306 119.53 67.3671 119.507C67.3036 119.485 67.2452 119.45 67.1951 119.405L67.1332 119.343C66.5692 119.017 65.9889 118.691 65.438 118.346C64.7749 117.954 64.1389 117.518 63.5341 117.042C61.8487 116.106 60.1405 115.063 58.2399 114.639C57.0322 114.309 55.7588 114.305 54.5486 114.625C53.3384 114.946 52.2344 115.58 51.3482 116.465C50.3018 117.302 49.3075 118.235 48.9391 119.575C48.623 120.56 48.3682 121.564 48.1763 122.58C48.1274 122.818 48.072 123.053 48.0133 123.291C47.9645 123.471 47.8476 123.626 47.6873 123.721C47.5783 123.785 47.4543 123.819 47.3278 123.82C47.2014 123.82 47.0772 123.787 46.9677 123.724C46.8583 123.661 46.7677 123.569 46.7051 123.459C46.6425 123.35 46.6102 123.225 46.6115 123.099C46.5728 121.714 46.7577 120.333 47.1592 119.007C47.6319 117.394 48.9684 116.341 50.2072 115.304C51.4826 113.936 53.1721 113.026 55.0157 112.712C55.4395 112.647 58.8039 94.9453 59.2537 95.0007C59.5569 95.0399 60.0655 94.7465 60.0231 95.9136C59.8536 100.507 55.909 112.927 57.5194 112.686C57.7531 112.684 57.9854 112.721 58.2073 112.794C60.4404 113.09 62.266 114.541 64.1079 115.685C65.1087 116.465 65.9791 117.42 67.0419 118.157" fill="black"/>
<path d="M59.9057 122.287C59.9988 122.288 60.0879 122.325 60.1537 122.391C60.2196 122.457 60.257 122.546 60.2578 122.639C60.2561 122.732 60.2185 122.821 60.1528 122.886C60.0872 122.952 59.9986 122.989 59.9057 122.991C57.2358 123.102 55.4591 123.265 53.2749 124.947C52.1958 125.697 51.1754 126.903 49.741 126.799C48.0556 126.411 48.3262 124.214 49.415 123.291C50.8005 121.915 52.2741 120.598 54.0312 119.705C54.7762 119.29 55.5983 119.031 56.4469 118.946C56.6294 118.919 56.8153 118.96 56.9697 119.061C57.124 119.162 57.2362 119.316 57.2851 119.494C57.3339 119.671 57.3161 119.861 57.235 120.027C57.1539 120.192 57.015 120.323 56.8446 120.393C56.0752 120.745 55.27 120.999 54.5072 121.371C53.7443 121.743 49.2912 124.631 49.9725 125.547C50.9505 125.426 51.6025 124.517 52.4631 124.083C54.0486 122.985 55.9297 122.393 57.8584 122.385L59.909 122.261" fill="black"/>
<path d="M57.1282 116.722C57.3304 117.498 55.8829 117.573 55.3841 117.863C53.4053 118.567 51.7981 119.976 50.4355 121.524C49.5748 122.502 48.7337 123.571 48.4338 124.862C48.3903 125.089 48.3663 125.319 48.3621 125.55C48.3621 125.685 48.3085 125.814 48.2131 125.91C48.1178 126.005 47.9884 126.059 47.8535 126.059C47.7187 126.059 47.5893 126.005 47.4939 125.91C47.3986 125.814 47.345 125.685 47.345 125.55C47.3584 124.927 47.4684 124.31 47.671 123.721C47.8053 123.327 47.9732 122.946 48.173 122.58C48.9554 121.136 50.1844 119.894 51.4004 118.841C52.4881 117.914 53.7413 117.2 55.094 116.738C55.6612 116.624 56.8479 115.933 57.1185 116.722M103.407 112.745C104.209 112.813 106.266 112.745 106.015 113.938C105.963 114.123 105.841 114.279 105.674 114.374C105.508 114.468 105.31 114.493 105.125 114.443C102.931 113.576 100.597 114.176 98.5694 115.19C97.3664 115.705 96.0461 115.793 94.7715 116.041C90.4617 116.631 86.0444 117.019 81.826 117.997C78.892 118.668 75.9971 119.389 73.0859 120.099C70.6507 120.693 68.2351 121.403 65.7444 121.729C64.9564 121.905 64.1784 122.123 63.4135 122.381C63.2976 122.44 63.1709 122.473 63.0414 122.481C62.9119 122.488 62.7822 122.469 62.6605 122.424C62.4632 122.339 62.3074 122.18 62.2268 121.981C62.1462 121.782 62.1474 121.559 62.2301 121.361C62.2796 121.249 62.3527 121.15 62.4445 121.069C62.5362 120.989 62.6444 120.929 62.7615 120.895C63.5896 120.618 64.4437 120.399 65.2913 120.194C67.1201 119.829 69.0435 119.467 70.7909 119.125C78.0998 117.55 85.3696 115.754 92.8155 114.926C94.5563 114.782 96.2823 114.495 97.976 114.068C99.7169 113.371 101.51 112.696 103.414 112.764" fill="black"/>
<path d="M108.408 158.463C108.408 157.485 108.49 156.507 108.483 155.529C108.483 152.66 108.724 149.795 108.62 146.926C108.62 144.898 108.812 142.864 108.525 140.879C108.519 140.789 108.528 140.698 108.551 140.611C108.023 140.611 107.528 140.634 107.091 140.65C103.709 140.468 100.395 139.629 97.3338 138.179C95.1235 137.182 92.8154 136.406 90.6052 135.408C88.594 134.46 86.5252 133.639 84.4112 132.95C84.2493 132.889 84.1134 132.774 84.0265 132.624C82.4243 133.215 80.792 133.721 79.1365 134.14C76.623 134.877 74.2856 136.028 71.8015 136.823C69.6205 137.681 67.495 138.681 65.301 139.51C63.997 140.028 62.5789 140.269 61.288 140.752C59.9318 141.201 58.5431 141.671 57.1347 142.026C57.2235 142.144 57.2643 142.291 57.2488 142.437C56.9391 144.393 56.2871 146.333 55.821 148.24C55.2113 151.066 54.5822 153.873 53.8356 156.667C53.7683 156.989 53.729 157.316 53.7183 157.645L53.3075 157.677C53.0467 157.704 52.7892 157.739 52.5316 157.766C52.4697 157.012 52.75 156.272 52.9717 155.558C53.2651 154.525 53.6237 153.511 53.966 152.494C54.8723 149.234 55.6123 145.935 56.4045 142.652C56.3691 142.584 56.3506 142.508 56.3506 142.43C56.3506 142.353 56.3691 142.277 56.4045 142.209C54.5801 142.658 52.686 142.75 50.8266 142.479C46.9961 141.912 45.7117 138.496 44.8641 135.174C44.5837 133.977 44.2121 132.787 44.1665 131.552C44.0589 129.71 44.1665 127.862 44.0687 126.01C43.794 122.166 43.9164 118.304 44.4338 114.486C44.5153 113.742 44.6131 112.999 44.6261 112.253C44.1078 111.852 43.6155 111.412 43.12 110.978C42.376 110.374 41.6974 109.693 41.0955 108.947C40.1958 107.591 37.9985 105.178 38.8755 103.506C39.9219 101.896 41.0303 100.344 41.9073 98.6161C43.296 96.6601 44.3327 94.5215 45.3401 92.3797C46.3474 90.4922 47.107 88.4905 47.9937 86.5476C48.3234 85.8348 48.707 85.1482 49.1412 84.4938C49.966 83.281 50.6408 81.9542 51.6319 80.8621C53.9139 78.3128 56.336 75.5255 59.759 74.6225C63.0647 73.5173 66.5203 73.0218 69.865 72.034C70.9311 71.7798 72.147 71.7406 73.0664 71.1441C73.3924 70.7203 73.7184 70.303 74.0444 69.8694C74.3704 69.338 74.6638 68.7969 74.9311 68.2687C76.7078 64.6827 76.936 60.5262 76.7045 56.5914C75.7541 55.5808 75.0295 54.3795 74.579 53.0674C73.9317 51.313 73.3875 49.5224 72.949 47.7047C72.8495 47.7725 72.7355 47.8164 72.6162 47.8328C72.4968 47.8492 72.3753 47.8377 72.2611 47.7992C71.0158 47.4341 70.0802 46.4333 69.3271 45.4292C69.0583 44.8145 68.8402 44.1789 68.6751 43.5286C68.3491 42.1007 68.0623 40.6272 68.2024 39.1569C68.3589 37.8529 68.3883 36.3305 69.2945 35.3101C69.2478 35.2691 69.2081 35.2207 69.1772 35.1667C68.8464 34.6471 68.545 34.1095 68.2742 33.5563C67.7616 32.7192 67.3956 31.8008 67.1918 30.8407C66.4558 28.5005 66.2849 26.0192 66.6931 23.6002C66.9799 22.0941 67.4689 20.4706 68.5839 19.3622C69.0211 18.9845 69.4989 18.6565 70.0085 18.3842C69.9074 17.2157 69.914 16.0405 70.028 14.8732C70.1618 13.3824 70.7488 11.9683 71.7102 10.821C72.4788 9.77474 73.4528 8.8962 74.5725 8.2391C75.7167 7.61318 76.8251 6.79492 78.1585 6.658C79.0327 6.5251 79.9259 6.59879 80.7665 6.87316C81.6296 7.26097 82.5407 7.53177 83.4755 7.67838C85.5717 8.24236 87.9254 8.47056 89.9173 7.43714C91.4169 6.74276 92.7079 5.59198 94.3248 5.15514C96.5547 4.67592 99.4072 4.05652 101.145 5.96036C102.566 7.3426 102.491 9.08018 102.514 10.9025V10.8015C102.534 10.9281 102.572 11.0511 102.628 11.1666C103.091 11.5741 103.73 11.5708 104.34 11.5708H104.923C105.973 11.5695 106.989 11.9402 107.792 12.6173C110.155 14.5537 111.153 16.3761 111.397 19.4307C111.896 22.8993 109.35 25.3737 106.312 26.4788C105.774 26.7396 105.556 26.9711 105.813 27.5513C106.413 29.0314 106.85 30.7135 106.465 32.3044C106.109 33.4154 105.595 34.4694 104.939 35.434C104.664 35.7232 104.348 35.9703 104.001 36.1675C103.528 36.4935 102.817 37.126 102.273 36.8195C102.49 37.5337 102.554 38.286 102.459 39.0265C102.234 41.8171 100.871 46.4398 98.2662 47.8285C97.8195 48.0633 97.1838 48.4316 96.6818 48.3404C96.6297 48.5588 96.5742 48.7837 96.5188 48.9924C96.1243 50.6224 95.6256 52.2524 94.7128 53.6705C94.4087 54.1002 94.0822 54.5137 93.7348 54.9093C93.7568 55.0577 93.7317 55.2094 93.663 55.3428C93.2066 58.492 93.4283 61.6835 93.989 64.7968C94.1846 66.6061 94.315 68.5002 95.104 70.1661C95.3037 70.5382 95.5315 70.8945 95.7853 71.2321C96.0185 71.3179 96.2424 71.4271 96.4536 71.5581C97.1863 71.9844 97.949 72.357 98.7356 72.673C101.692 73.3869 104.714 73.9248 107.56 75.043C108.576 75.327 109.559 75.7148 110.494 76.2003C111.711 76.9909 112.814 77.9428 113.774 79.03C115 80.5165 115.675 82.3552 116.382 84.1123C117.657 86.7203 118.547 89.5728 119.551 92.2623C120.891 95.2648 122.27 98.2477 123.433 101.319C123.476 101.461 123.467 101.615 123.407 101.752C123.348 101.889 123.241 102 123.107 102.065C123.21 102.017 123.321 101.989 123.434 101.983C123.548 101.977 123.661 101.994 123.768 102.032C123.875 102.07 123.973 102.129 124.057 102.205C124.141 102.281 124.21 102.373 124.258 102.476V102.499C124.483 103.151 123.965 103.764 123.675 104.308C123.154 105.11 122.491 105.809 121.719 106.372C121.831 106.407 121.929 106.479 121.996 106.576C122.064 106.672 122.098 106.788 122.094 106.906C122.094 107.399 122.058 107.884 122.077 108.383C122.208 112.217 122.586 116.034 122.498 119.871C122.498 122.313 122.084 124.729 121.715 127.135C121.445 128.742 121.314 130.395 120.812 131.946C120.044 134.048 119.081 136.074 117.937 137.997C116.509 140.015 112.933 140.442 109.914 140.572C109.944 140.669 109.956 140.771 109.947 140.872C110.175 142.858 110.087 144.853 110.168 146.844C110.403 150.179 110.729 153.511 110.628 156.859C110.592 157.316 110.628 157.935 110.543 158.466C109.828 158.549 109.112 158.617 108.395 158.672C108.379 158.6 108.372 158.527 108.372 158.453M45.2651 117.961C44.9163 121.358 44.9195 124.771 44.8413 128.181C44.6913 130.942 45.3824 133.609 46.2594 136.201C47.2178 139.382 48.7957 141.286 52.2708 141.531C55.3939 141.792 58.3866 140.778 61.2782 139.718C65.3695 138.597 69.2424 136.722 73.2457 135.369C74.4421 134.968 75.6059 134.483 76.7697 134C78.0737 133.508 79.4201 133.146 80.7339 132.696C82.9702 131.923 85.0958 130.897 87.2897 130.02C90.1716 128.898 92.9621 127.516 95.8244 126.365C97.8195 125.218 99.8701 124.161 101.862 123.014C101.937 122.972 102.02 122.945 102.105 122.935C102.191 122.925 102.277 122.932 102.36 122.956C102.443 122.979 102.52 123.019 102.587 123.073C102.654 123.126 102.71 123.193 102.752 123.268C102.832 123.413 102.854 123.583 102.814 123.744C102.766 123.906 102.661 124.044 102.517 124.132C101.774 124.618 100.99 125.038 100.173 125.387C98.4813 126.078 96.9328 127.073 95.2213 127.715C93.1088 128.422 91.218 129.599 89.2131 130.545C88.2699 130.957 87.3202 131.36 86.3639 131.751C88.2266 132.314 90.0434 133.019 91.7983 133.86C93.8586 134.74 96.0005 135.415 98.0999 136.207C99.6798 136.87 101.309 137.407 102.974 137.814C104.571 138.202 106.142 138.721 107.789 138.864C110.269 138.978 112.809 138.985 115.205 138.261C118.299 137.254 119.466 132.96 120.317 130.14C122.022 124.028 121.096 117.651 120.998 111.418C121.073 109.951 120.998 108.484 120.969 107.011C120.633 107.283 120.313 107.575 120.01 107.884C118.84 108.882 117.66 109.932 116.239 110.561C115.283 111.046 114.488 111.803 113.477 112.191C111.567 113.009 109.529 113.707 107.42 113.54C107.459 114.137 107.492 114.734 107.512 115.333C107.564 117.064 107.43 118.802 107.512 120.533C107.632 121.72 107.766 122.903 107.782 124.099C107.78 124.228 107.729 124.351 107.638 124.442C107.548 124.534 107.425 124.586 107.296 124.588C107.191 124.587 107.089 124.553 107.005 124.49C106.921 124.427 106.858 124.34 106.827 124.24C106.73 124.35 106.598 124.423 106.454 124.45C106.31 124.476 106.161 124.452 106.031 124.383C105.617 124.188 105.285 123.822 104.799 123.813C104.591 123.78 104.378 123.78 104.17 123.813C103.701 123.858 103.221 123.904 103.114 123.379C103.114 122.538 104.225 122.851 104.77 122.727C105.447 122.597 106.149 122.734 106.726 123.112C106.774 123.139 106.819 123.172 106.86 123.21C106.964 120.174 106.667 117.113 106.459 114.104C106.113 109.322 106.035 104.526 105.751 99.7375C105.751 99.626 105.795 99.519 105.874 99.4401C105.953 99.3613 106.06 99.317 106.172 99.317C106.283 99.317 106.39 99.3613 106.469 99.4401C106.548 99.519 106.592 99.626 106.592 99.7375C106.667 101.247 106.726 102.76 106.82 104.21C107.038 105.926 107.16 107.652 107.186 109.381C107.208 110.375 107.277 111.363 107.349 112.354C107.403 112.347 107.457 112.347 107.512 112.354C109.699 112.598 111.808 111.526 113.686 110.544C115.182 109.596 116.864 108.914 118.071 107.584C118.73 106.959 119.356 106.301 119.948 105.612C120.662 104.849 121.578 104.269 122.159 103.389C122.371 103.063 122.573 102.737 122.768 102.411C122.838 102.281 122.945 102.174 123.075 102.104C122.928 102.179 122.758 102.193 122.601 102.144C122.444 102.096 122.312 101.988 122.234 101.843C121.416 100.418 120.731 98.9211 120.186 97.3708C119.091 94.8149 117.787 92.3536 116.975 89.6869C116.307 87.7081 115.371 86.1009 114.465 84.2819C113.761 82.7105 113.106 81.1001 112.203 79.6298C111.01 77.8499 109.07 76.8653 107.032 76.3698C105.673 75.9232 104.32 75.444 102.964 74.9811C102.187 74.7081 101.397 74.4752 100.597 74.2834C99.7247 74.2017 98.8595 74.0557 98.0086 73.8466C97.5206 73.7227 97.0545 73.5248 96.6264 73.2598C96.6302 73.3533 96.6138 73.4466 96.5784 73.5332C96.5429 73.6198 96.4893 73.6978 96.421 73.7618C93.7804 76.7252 89.5098 77.4587 85.7119 77.2044C84.2351 76.999 82.7486 76.7708 81.2946 76.435C80.0221 75.9932 78.7879 75.448 77.6043 74.805C76.3003 74.1237 75.2701 73.2826 74.0933 72.4644C74.0323 72.405 73.9807 72.3369 73.94 72.2622C73.8357 72.3535 73.7314 72.4448 73.614 72.5295C73.5063 72.6108 73.376 72.6567 73.2411 72.6607C73.1063 72.6648 72.9734 72.627 72.861 72.5524C72.3071 72.807 71.7401 73.0322 71.1625 73.2272C67.4559 74.9615 63.3711 75.5744 59.495 76.8328C58.3996 77.1914 57.5194 77.9509 56.6197 78.6421C55.6593 79.3645 54.7488 80.1508 53.8943 80.9958C53.3727 81.4815 52.8348 81.9444 52.3523 82.4693C51.5601 83.4799 50.9407 84.6176 50.2301 85.6902C49.3694 87.0985 48.7989 88.66 48.0328 90.1205C47.5112 91.2322 46.6995 92.3308 46.1779 93.4033C45.2912 95.18 44.6294 97.0708 43.4819 98.691C42.7418 99.894 42.1453 101.175 41.3661 102.359C41.014 103.033 40.5218 103.636 40.1893 104.315C40.2317 104.678 40.3423 105.029 40.5153 105.351C41.4933 107.17 42.5756 108.999 44.3034 110.17C46.2105 111.8 48.3067 112.748 50.8234 112.778C51.8014 112.895 51.7101 114.434 50.7093 114.408C49.0402 114.323 47.3547 114.003 45.9073 113.126C45.7215 113.029 45.5389 112.924 45.3629 112.8C45.402 114.505 45.3629 116.305 45.2423 117.948M77.8064 63.6526C77.4022 65.9672 76.9425 68.3437 75.6026 70.3225C75.4364 70.5842 75.2546 70.8357 75.0582 71.0756C75.1353 71.1182 75.2056 71.1721 75.2669 71.2353C75.7152 71.8293 76.2054 72.3903 76.7339 72.9142C77.6427 73.5343 78.6194 74.0484 79.645 74.4464C83.8309 76.3405 90.4454 76.184 94.315 73.5825C94.6182 73.3706 94.9116 73.1457 95.205 72.9305C92.597 71.3005 92.3688 67.8873 92.271 65.0739C92.1178 63.5124 91.945 61.9541 91.945 60.3828C91.945 59.1407 91.9026 57.8693 92.0037 56.6208C91.599 56.938 91.1683 57.2204 90.716 57.4651C90.1846 57.664 89.2392 58.6257 88.76 58.0519C88.679 57.9445 88.6432 57.8097 88.6603 57.6763C88.6773 57.5429 88.7459 57.4215 88.8513 57.338C89.6826 56.7088 90.6443 56.1774 91.4854 55.5841C93.2751 53.9541 93.9271 51.6069 94.7975 49.4488C96.1765 46.2311 96.3004 42.6908 97.1741 39.3428C97.2067 39.2319 97.2393 39.1178 97.2686 39.0168C97.7152 37.3868 98.1618 35.7763 98.553 34.1268C98.4375 34.0042 98.3614 33.8497 98.3346 33.6834C98.254 32.8971 97.9337 32.1545 97.417 31.5563C96.9004 30.958 96.2125 30.533 95.4463 30.3386C92.4047 30.13 90.0803 30.5538 89.2523 26.8863C88.6003 26.8407 88.1243 27.3688 87.6549 27.7567C87.104 28.2659 86.4825 28.693 85.8097 29.0249C83.6646 29.9051 80.6882 29.892 78.7127 28.5945C78.1063 28.1936 77.7053 27.5742 77.2848 26.9939C76.6621 26.1756 75.9547 25.3965 75.6092 24.4054H75.5798C75.0973 24.8653 74.6765 25.3858 74.328 25.9539C73.4282 27.2579 73.1055 29.077 71.8699 30.1072C71.9254 30.7396 71.9971 31.3721 72.0623 32.0078C72.4633 35.7405 72.949 39.4666 73.3663 43.1961C73.5152 45.3171 73.8789 47.4175 74.4519 49.4651C74.9669 51.5352 75.6678 53.4781 77.0599 55.0918C77.9075 55.9948 78.9833 56.6566 79.9939 57.3543C80.1452 57.4407 80.2559 57.5837 80.3018 57.7519C80.3476 57.92 80.3248 58.0994 80.2384 58.2508C80.1519 58.4021 80.0089 58.5128 79.8407 58.5587C79.6726 58.6045 79.4932 58.5817 79.3419 58.4953C78.8184 58.2708 78.321 57.9899 77.8586 57.6574C77.9727 59.6623 78.1846 61.677 77.8292 63.6656M98.9214 39.3754C98.8861 39.5055 98.8249 39.6271 98.7415 39.733C98.658 39.8389 98.554 39.9268 98.4357 39.9915C97.9076 42.1594 97.4805 44.3534 97.0045 46.5311C97.4607 46.3199 97.8715 46.0221 98.214 45.6541C99.443 44.2099 101.474 39.095 100.682 37.3444C99.8864 37.7682 99.3778 38.6484 98.9214 39.3754ZM69.4999 38.3126C69.1967 40.4381 69.4412 42.6451 70.5725 44.5066C71.1449 45.1178 71.8039 45.6417 72.5285 46.0616C72.4502 45.6346 72.385 45.2075 72.3263 44.7804C72.2057 42.531 71.9514 40.2947 71.7102 38.0616C71.6659 38.0025 71.6378 37.9328 71.6287 37.8595C71.5104 37.2041 71.2488 36.5829 70.8626 36.0404C70.7654 35.9264 70.6393 35.8408 70.4975 35.7926C70.403 35.7568 70.2986 35.7568 70.2041 35.7926H70.1878C69.5358 36.4446 69.6108 37.478 69.4901 38.3256M103.629 30.13C103.681 30.406 103.72 30.6846 103.743 30.9646V31.2906C103.743 31.3884 103.723 31.5025 103.707 31.6166C103.7 31.655 103.692 31.6931 103.681 31.7307C103.661 31.7861 103.639 31.8382 103.616 31.8904C103.593 31.9426 103.534 32.0371 103.492 32.1121C103.391 32.2588 103.283 32.4055 103.166 32.5424L102.582 33.2237L102.39 33.4389C102.328 33.5048 102.281 33.5837 102.252 33.67C102.224 33.7562 102.216 33.8477 102.227 33.9377C102.252 34.0892 102.333 34.2256 102.455 34.3191C102.555 34.3944 102.676 34.4355 102.801 34.4365C102.892 34.4348 102.982 34.4132 103.064 34.3732C103.147 34.3332 103.219 34.2758 103.277 34.205L103.72 33.6573C103.89 33.4645 104.05 33.2632 104.199 33.0542C104.416 32.7684 104.585 32.449 104.698 32.1088C104.786 31.7685 104.816 31.4158 104.786 31.0656C104.727 30.4165 104.597 29.7759 104.398 29.1553C104.31 28.8684 104.225 28.5848 104.144 28.2946C104.13 28.2263 104.102 28.1616 104.062 28.1045C104.022 28.0474 103.971 27.9992 103.911 27.9628C103.852 27.9263 103.786 27.9025 103.717 27.8928C103.648 27.8831 103.577 27.8877 103.51 27.9062C103.443 27.9248 103.38 27.957 103.326 28.0009C103.272 28.0447 103.227 28.0992 103.195 28.161C103.163 28.2228 103.143 28.2905 103.138 28.3601C103.133 28.4296 103.143 28.4994 103.166 28.5652C103.319 29.0803 103.492 29.5823 103.622 30.1039V30.1267L103.629 30.13ZM68.3817 28.1251C68.2624 28.1351 68.1517 28.1916 68.0736 28.2825C67.9955 28.3734 67.9563 28.4913 67.9645 28.6108C67.9771 28.7532 67.9978 28.8946 68.0264 29.0346C68.0475 29.1364 68.1032 29.2278 68.184 29.2931C68.2648 29.3585 68.3658 29.3939 68.4698 29.3932C68.4979 29.3964 68.5264 29.3964 68.5545 29.3932C68.6701 29.3681 68.7712 29.2988 68.8364 29.2002C68.9016 29.1015 68.9256 28.9813 68.9033 28.8651C68.9017 28.8434 68.9017 28.8216 68.9033 28.7999C68.9033 28.7184 68.8838 28.6369 68.874 28.5554C68.8636 28.4418 68.8116 28.336 68.7279 28.2584C68.6443 28.1808 68.5349 28.1368 68.4209 28.1349H68.3915M81.9368 28.1544C82.0737 28.1983 82.2131 28.2342 82.3541 28.262C82.491 28.2881 82.6279 28.3044 82.7681 28.3174C82.9083 28.3305 83.0485 28.3174 83.1887 28.3174H83.9841C84.0312 28.3113 84.0745 28.2883 84.1059 28.2526C84.1372 28.2169 84.1545 28.171 84.1545 28.1235C84.1545 28.076 84.1372 28.0301 84.1059 27.9944C84.0745 27.9587 84.0312 27.9356 83.9841 27.9295C83.6581 27.9295 83.306 27.9295 82.967 27.9099C82.7878 27.9029 82.6092 27.8844 82.4323 27.8545H82.4552C82.3048 27.8287 82.1566 27.7917 82.0118 27.7437C81.8784 27.7019 81.7477 27.6518 81.6206 27.5937L81.438 27.5122L81.2196 27.3949C81.1675 27.3688 81.1186 27.3362 81.0664 27.3036L80.7013 27.0786C80.681 27.0663 80.6584 27.058 80.635 27.0545C80.6115 27.0509 80.5875 27.052 80.5644 27.0578C80.5414 27.0635 80.5197 27.0738 80.5007 27.088C80.4816 27.1023 80.4656 27.1201 80.4535 27.1406C80.4297 27.1822 80.4232 27.2315 80.4354 27.2778C80.4476 27.3242 80.4775 27.3639 80.5187 27.3883L80.9327 27.6524L81.1023 27.7502C81.1609 27.7828 81.2294 27.8219 81.2913 27.8513H81.2685H81.3076L81.3598 27.8773L81.4609 27.923H81.4804H81.4641L81.5098 27.9425H81.5326C81.663 28.0007 81.797 28.0508 81.9336 28.0925M69.2424 20.438C69.1315 20.6238 69.0272 20.8129 68.9164 21.002L68.7958 21.2139C68.7729 21.253 68.7566 21.2954 68.7371 21.3345L68.4111 21.967C68.2807 22.231 68.1666 22.5081 68.0623 22.7852C67.7186 23.6732 67.5226 24.6114 67.482 25.5627C67.482 25.9539 67.4624 26.3517 67.482 26.7429C67.4866 26.7853 67.5062 26.8247 67.5373 26.854C67.5683 26.8833 67.6089 26.9005 67.6515 26.9026C67.6733 26.9013 67.6947 26.8958 67.7144 26.8863C67.7341 26.8767 67.7518 26.8634 67.7663 26.8471C67.7808 26.8307 67.792 26.8116 67.7991 26.791C67.8063 26.7703 67.8093 26.7484 67.808 26.7266C67.7868 26.377 67.7868 26.0264 67.808 25.6768V25.6997C67.808 25.5236 67.808 25.3541 67.8308 25.1781C67.8536 25.002 67.8634 24.8521 67.8862 24.7021C67.9443 24.3413 68.0237 23.9842 68.1242 23.6328C68.1242 23.6328 68.1242 23.6328 68.1242 23.6524C68.2666 23.1653 68.4387 22.6874 68.6393 22.2212V22.2408C68.7795 21.9474 68.9229 21.6573 69.0598 21.3671C69.0731 21.3389 69.0883 21.3117 69.1055 21.2856L69.2489 21.0281C69.3337 20.8738 69.4217 20.7205 69.513 20.5684C69.5214 20.5524 69.5266 20.5348 69.5283 20.5168C69.5299 20.4987 69.5279 20.4805 69.5224 20.4632C69.517 20.446 69.5082 20.4299 69.4965 20.4161C69.4848 20.4022 69.4704 20.3909 69.4543 20.3826C69.4339 20.378 69.4127 20.378 69.3923 20.3826C69.3669 20.383 69.3419 20.3898 69.3197 20.4023C69.2975 20.4149 69.2788 20.4327 69.2652 20.4543M106.041 22.883C105.895 22.9465 105.779 23.063 105.715 23.209C105.677 23.3002 105.662 23.3995 105.672 23.4979C105.681 23.5964 105.715 23.6909 105.77 23.7732C105.824 23.8555 105.899 23.9229 105.986 23.9695C106.073 24.0161 106.171 24.0404 106.269 24.0403C106.342 24.0391 106.414 24.0248 106.481 23.9979C106.723 23.8969 106.957 23.7828 107.192 23.6719C107.642 23.4659 108.054 23.186 108.411 22.8439C108.592 22.6675 108.746 22.4654 108.868 22.2441C109.002 21.9929 109.102 21.7256 109.168 21.4486C109.305 20.9163 109.331 20.3616 109.246 19.8186C109.125 19.2308 108.923 18.6625 108.646 18.1299C108.476 17.7564 108.284 17.3929 108.072 17.0411C108.014 16.9369 107.917 16.86 107.803 16.8273C107.688 16.7946 107.565 16.8088 107.461 16.8667C107.357 16.9246 107.28 17.0216 107.247 17.1362C107.214 17.2508 107.229 17.3737 107.287 17.4779C107.349 17.5627 107.401 17.654 107.453 17.742C107.551 17.9246 107.645 18.1071 107.733 18.2929C107.821 18.4788 107.893 18.6483 107.971 18.8308C108.049 19.0134 108.111 19.2351 108.167 19.4437C108.2 19.5791 108.225 19.7162 108.242 19.8545C108.242 19.9621 108.258 20.0729 108.258 20.1805C108.257 20.2895 108.249 20.3984 108.235 20.5065C108.213 20.6592 108.181 20.8105 108.141 20.9596C108.108 21.0672 108.076 21.1715 108.036 21.2856C107.997 21.3997 107.939 21.5008 107.883 21.6116C107.851 21.6573 107.818 21.6996 107.789 21.7453L107.642 21.9083C107.564 21.98 107.485 22.0517 107.401 22.1169L107.169 22.2701C106.807 22.4788 106.432 22.6744 106.051 22.8537H106.025H106.067L106.018 22.8765M75.4527 10.1201C74.7997 10.4595 74.2089 10.907 73.7053 11.4437C73.4474 11.7012 73.2057 11.9745 72.9816 12.2619C72.786 12.5303 72.6158 12.8162 72.473 13.1161C72.4157 13.2263 72.4045 13.3548 72.4417 13.4734C72.479 13.5919 72.5618 13.6909 72.6719 13.7485C72.7402 13.7847 72.8163 13.8037 72.8936 13.8039C72.9806 13.8057 73.0662 13.7827 73.1407 13.7377C73.2151 13.6927 73.2753 13.6275 73.3141 13.5496C73.3989 13.3611 73.4936 13.1772 73.5977 12.9987L73.5651 13.0509C73.654 12.9075 73.7509 12.7693 73.8553 12.6368C74.078 12.3554 74.3187 12.0886 74.5757 11.8381C74.808 11.6239 75.0517 11.4226 75.306 11.235C75.4446 11.1344 75.5883 11.0409 75.7363 10.9547L75.8341 10.9025C75.9366 10.8518 76.0155 10.7634 76.0544 10.6559C76.0932 10.5484 76.0891 10.43 76.0427 10.3255C76.0055 10.2515 75.9488 10.189 75.8787 10.1448C75.8086 10.1006 75.7279 10.0763 75.645 10.0745C75.5824 10.0749 75.5209 10.0905 75.4657 10.1201M96.1504 10.0712C95.7537 10.1511 95.3698 10.2849 95.0094 10.4689C94.6476 10.6515 94.2824 10.8341 93.9369 11.0427C93.5265 11.2843 93.1467 11.5743 92.8057 11.9066C92.6557 12.05 92.509 12.2 92.3656 12.35C92.0917 12.6238 91.8277 12.9042 91.5571 13.1813C91.5054 13.2382 91.4782 13.3132 91.4813 13.39C91.4843 13.4668 91.5174 13.5393 91.5734 13.592C91.6257 13.6428 91.696 13.6709 91.769 13.6703C91.8092 13.6704 91.8489 13.6624 91.8859 13.6467C91.9229 13.631 91.9563 13.608 91.9841 13.579C92.3819 13.165 92.7796 12.7542 93.1871 12.3532C93.3295 12.2185 93.4797 12.0922 93.637 11.9751C93.79 11.8675 93.9489 11.7684 94.1129 11.6784H94.1325C94.3574 11.5578 94.5889 11.4567 94.8171 11.3524C94.967 11.2807 95.1268 11.2253 95.28 11.1633C95.4332 11.1014 95.6353 11.0427 95.8179 10.9938C95.932 10.9677 96.0461 10.9482 96.1635 10.9319C96.2808 10.9156 96.3558 10.9319 96.4536 10.9319C96.5514 10.9319 96.6101 10.9319 96.6851 10.9514C96.905 10.992 97.1226 11.0442 97.3371 11.1079C97.3968 11.1243 97.4591 11.1287 97.5205 11.1208C97.582 11.1129 97.6412 11.0928 97.6947 11.0617C97.7483 11.0306 97.7951 10.9892 97.8325 10.9399C97.8699 10.8905 97.8971 10.8342 97.9124 10.7742C97.9278 10.7142 97.9311 10.6518 97.922 10.5905C97.913 10.5293 97.8919 10.4704 97.8599 10.4174C97.8279 10.3644 97.7856 10.3183 97.7356 10.2818C97.6856 10.2453 97.6288 10.2192 97.5685 10.2049H97.5457C97.225 10.1289 96.8972 10.0874 96.5677 10.081C96.4167 10.0804 96.266 10.0946 96.1178 10.1234M99.2181 10.5244C99.1007 10.6353 99.0312 10.7876 99.0245 10.949C99.0178 11.1104 99.0744 11.268 99.1822 11.3883C99.4235 11.6262 99.6354 11.8936 99.8538 12.1544C99.9063 12.2158 99.972 12.2646 100.046 12.2973C100.12 12.3301 100.2 12.3458 100.281 12.3434C100.431 12.3428 100.575 12.2884 100.688 12.1902C100.793 12.0926 100.86 11.9605 100.875 11.8181C100.891 11.6756 100.855 11.5323 100.773 11.4143C100.565 11.1126 100.334 10.8271 100.082 10.5602C100.022 10.499 99.9505 10.4502 99.8716 10.4166C99.7928 10.3831 99.708 10.3654 99.6223 10.3646C99.4721 10.3642 99.3274 10.4213 99.2181 10.5244ZM82.566 10.1984C82.5189 10.3324 82.5268 10.4796 82.5879 10.6079C82.6489 10.7361 82.7583 10.835 82.892 10.883C83.381 11.0427 83.87 11.2416 84.3329 11.4339C84.8745 11.6547 85.4419 11.8058 86.0216 11.8838C86.3008 11.9163 86.5816 11.9326 86.8627 11.9327C87.1218 11.9327 87.3808 11.9197 87.6386 11.8936C87.9957 11.8651 88.3507 11.8139 88.7013 11.7403C89.0524 11.6682 89.3995 11.5779 89.7413 11.4698C90.1962 11.3334 90.6381 11.1567 91.0616 10.9416C91.4664 10.7138 91.8532 10.4555 92.2189 10.169C92.4829 9.97342 92.7274 9.76152 92.9817 9.55614C93.236 9.35076 93.5261 9.12582 93.8 8.90414C93.9825 8.78026 94.1683 8.6629 94.3639 8.55532L94.4063 8.5325C94.5932 8.43904 94.7823 8.35428 94.9736 8.27822C95.13 8.2228 95.2996 8.17716 95.4528 8.13478C95.7788 8.06632 96.1048 8.02068 96.4471 7.9783C96.6622 7.95874 96.8774 7.9457 97.0991 7.9457C97.2327 7.9457 97.3664 7.96526 97.5001 7.98156C97.6995 8.00417 97.8999 7.94931 98.06 7.82831C98.2201 7.70732 98.3276 7.52944 98.3602 7.33144C98.3929 7.13345 98.3482 6.93048 98.2354 6.76449C98.1227 6.5985 97.9504 6.48218 97.7543 6.43958C97.207 6.32706 96.6424 6.32706 96.095 6.43958C95.5875 6.512 95.0877 6.63095 94.6019 6.79492C94.0315 7.0126 93.4948 7.31005 93.0078 7.67838C92.5709 8.00438 92.1667 8.36298 91.7592 8.71506C91.4332 9.0052 91.0746 9.27904 90.7127 9.53984H90.729C90.5823 9.63438 90.4324 9.72892 90.2792 9.81368C89.9503 9.97619 89.6129 10.1209 89.2686 10.2473C88.9426 10.3548 88.6329 10.4526 88.3101 10.5472C88.0852 10.5993 87.8602 10.6515 87.6353 10.6906C87.4104 10.7297 87.1659 10.7591 86.9311 10.7884C86.6964 10.8178 86.5399 10.8112 86.3443 10.808C86.1487 10.8047 85.9531 10.7819 85.7608 10.7558C85.5685 10.7297 85.3598 10.6743 85.1577 10.6222C84.861 10.5211 84.5709 10.4135 84.284 10.2962C83.958 10.1495 83.6092 10.0028 83.2636 9.87562C83.2049 9.85503 83.1433 9.84403 83.0811 9.84302C82.9719 9.84333 82.8654 9.87687 82.7757 9.93917C82.686 10.0015 82.6174 10.0896 82.579 10.1918M78.566 9.1519C78.3564 9.17757 78.1544 9.24639 77.9727 9.35402C77.9348 9.37956 77.9024 9.41234 77.8773 9.45048C77.8522 9.48862 77.8349 9.53136 77.8264 9.57622C77.8179 9.62109 77.8184 9.66719 77.8279 9.71186C77.8373 9.75653 77.8555 9.79889 77.8814 9.8365C77.8971 9.85942 77.9158 9.88024 77.9368 9.89844C78.0014 9.9534 78.0835 9.98346 78.1683 9.9832C78.217 9.98464 78.2654 9.97514 78.31 9.9554C78.3546 9.93565 78.3941 9.90616 78.4258 9.8691L78.5236 9.83324L78.6801 9.8039C78.8001 9.78872 78.9209 9.78002 79.0419 9.77782H78.9996C79.2697 9.77559 79.5396 9.78974 79.808 9.8202H79.9417C79.9877 9.82854 80.0349 9.82775 80.0807 9.81785C80.1264 9.80795 80.1697 9.78914 80.2081 9.7625C80.2466 9.73586 80.2794 9.70191 80.3047 9.66259C80.33 9.62326 80.3474 9.57934 80.3557 9.53332C80.3641 9.48729 80.3633 9.44008 80.3534 9.39437C80.3435 9.34865 80.3247 9.30534 80.298 9.26689C80.2714 9.22845 80.2374 9.19562 80.1981 9.1703C80.1588 9.14497 80.1149 9.12764 80.0688 9.1193H80.0199C79.7689 9.103 79.5212 9.09648 79.2669 9.09648H79.2017C78.9835 9.09488 78.7655 9.11014 78.5497 9.14212" fill="black"/>
</svg>
