<svg width="41" height="40" viewBox="0 0 41 40" fill="none" xmlns="http://www.w3.org/2000/svg">
<path d="M35.6018 16.5474C37.3217 15.9026 37.4767 12.8215 35.9478 9.66571C34.419 6.5099 31.7855 4.47436 30.0655 5.11923M35.6018 16.5474C33.8818 17.1923 31.2483 15.1568 29.7195 12.0009C28.1907 8.84513 28.3457 5.76408 30.0655 5.11923M35.6018 16.5474L10.6018 31.5475C8.88191 32.1923 6.24829 30.1568 4.71949 27.001C3.19068 23.8452 3.34559 20.764 5.06551 20.1192L30.0655 5.11923" stroke="black" stroke-width="1.5"/>
<path d="M25.3335 22.6777C23.064 21.7227 18.539 18.2505 18.5958 12.001M19.5002 26.1677C17.5557 25.2398 13.5002 21.7968 12.8335 15.4485" stroke="black" stroke-width="1.5"/>
<path d="M26.0503 23.3335C27.0463 25.2172 28.0653 30.1875 24.5833 35.0002L22.939 32.6402L18.667 34.684C18.667 34.684 21.7085 31.4782 20.255 26.6668" stroke="black" stroke-width="1.5" stroke-linecap="round" stroke-linejoin="round"/>
</svg>
