<svg width="38" height="36" viewBox="0 0 38 36" fill="none" xmlns="http://www.w3.org/2000/svg">
<path d="M18.9998 8.83333C18.9998 6.88841 18.2272 5.02315 16.852 3.64788C15.4767 2.27262 13.6114 1.5 11.6665 1.5H0.666504V29H13.4998C14.9585 29 16.3575 29.5795 17.3889 30.6109C18.4204 31.6424 18.9998 33.0413 18.9998 34.5M18.9998 8.83333V34.5M18.9998 8.83333C18.9998 6.88841 19.7725 5.02315 21.1477 3.64788C22.523 2.27262 24.3882 1.5 26.3332 1.5H37.3332V29H24.4998C23.0411 29 21.6422 29.5795 20.6107 30.6109C19.5793 31.6424 18.9998 33.0413 18.9998 34.5" stroke="#222222" stroke-width="1.25" stroke-linecap="round" stroke-linejoin="round"/>
</svg>
