<svg width="45" height="44" viewBox="0 0 45 44" fill="none" xmlns="http://www.w3.org/2000/svg">
<path d="M18.667 24.4444C18.667 23.876 18.667 23.5919 18.7295 23.3589C18.8989 22.7262 19.3932 22.2319 20.0259 22.0625C20.2589 22 20.543 22 21.1114 22H23.5559C24.1243 22 24.4084 22 24.6415 22.0625C25.2741 22.2319 25.7684 22.7262 25.9378 23.3589C26.0003 23.5919 26.0003 23.876 26.0003 24.4444V25.6667C26.0003 27.6918 24.3588 29.3333 22.3337 29.3333C20.3086 29.3333 18.667 27.6918 18.667 25.6667V24.4444Z" stroke="#222222" stroke-width="1.75" stroke-linecap="round" stroke-linejoin="round"/>
<path d="M25.817 24.7498H27.9851C30.3395 24.7498 31.5166 24.7498 32.5189 24.5375C35.42 23.923 37.7868 22.0378 38.8225 19.5166C39.1803 18.6456 39.3263 17.5916 39.6183 15.4836C39.7279 14.6923 39.7828 14.2966 39.7302 13.9729C39.5765 13.0303 38.8212 12.2582 37.8035 12.0038C37.4541 11.9165 37.0122 11.9165 36.1284 11.9165H8.53896C7.65509 11.9165 7.21314 11.9165 6.86375 12.0038C5.84616 12.2582 5.09073 13.0303 4.93723 13.9729C4.88452 14.2966 4.93933 14.6923 5.04895 15.4836C5.341 17.5916 5.48701 18.6456 5.84482 19.5166C6.88049 22.0378 9.24728 23.923 12.1483 24.5375C13.1506 24.7498 14.3278 24.7498 16.6823 24.7498H18.8503" stroke="#222222" stroke-width="1.75"/>
<path d="M6.75 21.0835V24.7502C6.75 31.664 6.75 35.1211 8.77857 37.2689C10.8071 39.4168 14.072 39.4168 20.6019 39.4168H24.0647C30.5947 39.4168 33.8595 39.4168 35.8881 37.2689C37.9167 35.1211 37.9167 31.664 37.9167 24.7502V21.0835" stroke="#222222" stroke-width="1.75" stroke-linecap="round" stroke-linejoin="round"/>
<path d="M28.7503 11.9168L28.6086 11.2693C27.9028 8.0425 27.5499 6.42913 26.7096 5.5063C25.8694 4.5835 24.7535 4.5835 22.5212 4.5835H22.1461C19.9138 4.5835 18.7979 4.5835 17.9577 5.5063C17.1174 6.42913 16.7645 8.0425 16.0587 11.2693L15.917 11.9168" stroke="#222222" stroke-width="1.75"/>
</svg>
