<svg width="24" height="24" viewBox="0 0 24 24" fill="none" xmlns="http://www.w3.org/2000/svg">
<path d="M15.616 20C15.348 20 15.1143 19.9003 14.915 19.701C14.7157 19.5017 14.6157 19.268 14.615 19V14.616C14.615 14.348 14.715 14.1143 14.915 13.915C15.115 13.7157 15.3483 13.6157 15.615 13.615H20C20.268 13.615 20.5017 13.715 20.701 13.915C20.9003 14.115 21 14.3483 21 14.615V19C21 19.268 20.9003 19.5017 20.701 19.701C20.5017 19.9003 20.268 20 20 20H15.616ZM15.616 19H20V14.616H15.616V19ZM3 17.308V16.308H11.23V17.308H3ZM15.616 10.384C15.348 10.384 15.1143 10.2843 14.915 10.085C14.7157 9.88567 14.6157 9.65233 14.615 9.385V5C14.615 4.732 14.715 4.49833 14.915 4.299C15.115 4.09967 15.3483 4 15.615 4H20C20.268 4 20.5017 4.09967 20.701 4.299C20.9003 4.49833 21 4.732 21 5V9.385C21 9.65233 20.9003 9.88567 20.701 10.085C20.5017 10.2843 20.268 10.3843 20 10.385L15.616 10.384ZM15.616 9.384H20V5H15.616V9.384ZM3 7.692V6.692H11.23V7.692H3Z" fill="white"/>
</svg>
