<svg width="24" height="19" viewBox="0 0 24 19" fill="none" xmlns="http://www.w3.org/2000/svg">
<path d="M4.28587 4.75C4.28587 3.94832 4.60195 3.17948 5.16458 2.61261C5.72721 2.04574 6.4903 1.72727 7.28597 1.72727C8.08165 1.72727 8.84474 2.04574 9.40737 2.61261C9.97 3.17948 10.2861 3.94832 10.2861 4.75C10.2861 5.55168 9.97 6.32052 9.40737 6.88739C8.84474 7.45426 8.08165 7.77273 7.28597 7.77273C6.4903 7.77273 5.72721 7.45426 5.16458 6.88739C4.60195 6.32052 4.28587 5.55168 4.28587 4.75ZM7.28597 0C6.03562 0 4.83648 0.500445 3.95235 1.39124C3.06822 2.28204 2.57152 3.49022 2.57152 4.75C2.57152 6.00978 3.06822 7.21796 3.95235 8.10876C4.83648 8.99956 6.03562 9.5 7.28597 9.5C8.53633 9.5 9.73547 8.99956 10.6196 8.10876C11.5037 7.21796 12.0004 6.00978 12.0004 4.75C12.0004 3.49022 11.5037 2.28204 10.6196 1.39124C9.73547 0.500445 8.53633 0 7.28597 0ZM16.2863 6.04545C16.2863 5.58735 16.4669 5.14802 16.7884 4.82409C17.1099 4.50016 17.546 4.31818 18.0006 4.31818C18.4553 4.31818 18.8914 4.50016 19.2129 4.82409C19.5344 5.14802 19.715 5.58735 19.715 6.04545C19.715 6.50356 19.5344 6.94289 19.2129 7.26682C18.8914 7.59075 18.4553 7.77273 18.0006 7.77273C17.546 7.77273 17.1099 7.59075 16.7884 7.26682C16.4669 6.94289 16.2863 6.50356 16.2863 6.04545ZM18.0006 2.59091C17.0913 2.59091 16.2192 2.95487 15.5762 3.60272C14.9332 4.25058 14.5719 5.12925 14.5719 6.04545C14.5719 6.96166 14.9332 7.84033 15.5762 8.48819C16.2192 9.13604 17.0913 9.5 18.0006 9.5C18.91 9.5 19.7821 9.13604 20.4251 8.48819C21.0681 7.84033 21.4293 6.96166 21.4293 6.04545C21.4293 5.12925 21.0681 4.25058 20.4251 3.60272C19.7821 2.95487 18.91 2.59091 18.0006 2.59091ZM0 13.8182C0 13.131 0.270927 12.472 0.753181 11.9861C1.23543 11.5002 1.88951 11.2273 2.57152 11.2273H12.0004C12.6824 11.2273 13.3365 11.5002 13.8188 11.9861C14.301 12.472 14.5719 13.131 14.5719 13.8182V14.0134C14.57 14.0939 14.5642 14.1743 14.5548 14.2543C14.5377 14.4037 14.5059 14.6067 14.4434 14.8468C14.2779 15.4798 13.9866 16.0725 13.5871 16.5887C12.5842 17.8859 10.6975 19 7.28597 19C3.87442 19 1.98864 17.8859 0.984892 16.5887C0.585077 16.0725 0.293461 15.4799 0.127719 14.8468C0.0626977 14.5926 0.0208087 14.333 0.00257154 14.0712L0.000857111 14.0134V13.9935L0 13.9866V13.8182ZM1.71435 13.9719V13.9823C1.71435 13.9972 1.71692 14.0243 1.72206 14.0635C1.73063 14.1412 1.74863 14.2621 1.78721 14.4124C1.86435 14.7129 2.02121 15.1188 2.33665 15.5273C2.94096 16.308 4.26872 17.2727 7.28597 17.2727C10.3032 17.2727 11.6318 16.308 12.2353 15.5282C12.491 15.1973 12.6776 14.8178 12.7839 14.4124C12.8204 14.2713 12.8451 14.1275 12.8576 13.9823L12.8585 13.9719V13.8182C12.8585 13.5891 12.7682 13.3695 12.6074 13.2075C12.4466 13.0455 12.2286 12.9545 12.0013 12.9545H2.57152C2.34418 12.9545 2.12616 13.0455 1.96541 13.2075C1.80466 13.3695 1.71435 13.5891 1.71435 13.8182V13.9719ZM14.9808 16.834C15.778 17.1069 16.7697 17.2727 18.0006 17.2727C20.7445 17.2727 22.3037 16.4497 23.1548 15.4375C23.5688 14.9452 23.7806 14.446 23.8877 14.0626C23.9454 13.857 23.9824 13.6461 23.9983 13.433L23.9991 13.4019L24 13.3829V13.3501C24.0001 13.0714 23.9457 12.7953 23.8399 12.5378C23.7341 12.2802 23.579 12.0462 23.3834 11.8491C23.1879 11.652 22.9557 11.4956 22.7001 11.3889C22.4445 11.2822 22.1706 11.2273 21.8939 11.2273H14.8745C15.3031 11.71 15.6143 12.3008 15.7617 12.9545H21.8939C22.1082 12.9545 22.2814 13.1264 22.2865 13.3397L22.2831 13.3777C22.2728 13.4506 22.2579 13.5227 22.2385 13.5936C22.1854 13.7836 22.0756 14.0496 21.8468 14.3217C21.4122 14.839 20.3999 15.5455 18.0006 15.5455C17.002 15.5455 16.2443 15.4228 15.6683 15.2432C15.5162 15.804 15.2847 16.3398 14.9808 16.834Z" fill="white"/>
</svg>
