<svg width="23" height="16" viewBox="0 0 23 16" fill="none" xmlns="http://www.w3.org/2000/svg">
<path d="M13.4433 8.72401C12.7853 8.72401 12.2319 8.49962 11.7832 8.05084C11.3344 7.60207 11.11 7.04868 11.11 6.39068C11.11 5.73268 11.3344 5.17929 11.7832 4.73051C12.2319 4.28173 12.7853 4.05734 13.4433 4.05734C14.1013 4.05734 14.6547 4.28173 15.1035 4.73051C15.5523 5.17929 15.7767 5.73268 15.7767 6.39068C15.7767 7.04868 15.5523 7.60207 15.1035 8.05084C14.6547 8.49962 14.1013 8.72401 13.4433 8.72401ZM6.21932 12.4492C5.70054 12.4492 5.25682 12.2645 4.88815 11.895C4.51871 11.5256 4.33398 11.0818 4.33398 10.5638V2.21751C4.33398 1.69951 4.51871 1.25618 4.88815 0.88751C5.2576 0.518843 5.70093 0.334121 6.21815 0.333344H20.6673C21.1861 0.333344 21.6298 0.517677 21.9985 0.886343C22.3672 1.25501 22.5519 1.69873 22.5527 2.21751V10.5638C22.5527 11.0818 22.3679 11.5252 21.9985 11.8938C21.6298 12.2641 21.1865 12.4492 20.6685 12.4492H6.21932ZM7.38598 11.2825H19.5007C19.5007 10.7598 19.6854 10.315 20.0548 9.94784C20.4235 9.58073 20.8668 9.39718 21.3848 9.39718V3.38418C20.8637 3.38418 20.4196 3.19984 20.0525 2.83118C19.6846 2.46173 19.5007 2.01801 19.5007 1.50001H7.38598C7.38598 2.0219 7.20126 2.4664 6.83182 2.83351C6.46315 3.20062 6.01982 3.38418 5.50182 3.38418V9.39718C6.02293 9.39718 6.46743 9.5819 6.83532 9.95134C7.20243 10.32 7.38598 10.7633 7.38598 11.2813M18.5137 15.948H2.71932C2.20054 15.948 1.75682 15.7637 1.38815 15.395C1.01871 15.0256 0.833984 14.5818 0.833984 14.0638V4.37118C0.833984 4.20629 0.889984 4.06784 1.00198 3.95584C1.11398 3.84384 1.25282 3.78784 1.41848 3.78784C1.58415 3.78784 1.7226 3.84384 1.83382 3.95584C1.94504 4.06784 2.00065 4.20629 2.00065 4.37118V14.0638C2.00065 14.2427 2.07532 14.4072 2.22465 14.5573C2.37476 14.7075 2.53965 14.7825 2.71932 14.7825H18.5137C18.6793 14.7825 18.8178 14.8381 18.929 14.9493C19.041 15.0613 19.097 15.2002 19.097 15.3658C19.097 15.5315 19.041 15.67 18.929 15.7812C18.817 15.8924 18.6785 15.9472 18.5137 15.948ZM6.21932 11.2825H5.50065V1.49884H6.21932C6.02487 1.49884 5.85648 1.57001 5.71415 1.71234C5.57182 1.85468 5.50065 2.02268 5.50065 2.21634V10.5638C5.50065 10.7583 5.57182 10.9267 5.71415 11.069C5.85648 11.2113 6.02487 11.2825 6.21932 11.2825Z" fill="white"/>
</svg>
