<svg width="45" height="44" viewBox="0 0 45 44" fill="none" xmlns="http://www.w3.org/2000/svg">
<path d="M4.33301 15.7098C4.33301 13.5168 5.21737 12.1728 7.0475 11.1544L14.5811 6.96181C18.5287 4.76495 20.5025 3.6665 22.6663 3.6665C24.8302 3.6665 26.804 4.76495 30.7515 6.96181L38.2852 11.1544C40.1153 12.1728 40.9997 13.5168 40.9997 15.7098C40.9997 16.3045 40.9997 16.6018 40.9348 16.8462C40.5936 18.1305 39.4298 18.3332 38.306 18.3332H7.02669C5.90284 18.3332 4.73913 18.1305 4.39794 16.8462C4.33301 16.6018 4.33301 16.3045 4.33301 15.7098Z" stroke="#222222" stroke-width="1.75"/>
<path d="M8 18.3335V33.9168M15.3333 18.3335V33.9168" stroke="#222222" stroke-width="1.75"/>
<path d="M20.833 33.9165H9.83301C6.79545 33.9165 4.33301 36.3789 4.33301 39.4165C4.33301 39.9227 4.74342 40.3332 5.24967 40.3332H20.833" stroke="#222222" stroke-width="1.75" stroke-linecap="round"/>
<path d="M40.0833 26.5835L27.25 39.4168" stroke="#222222" stroke-width="1.75" stroke-linecap="round" stroke-linejoin="round"/>
<path d="M28.625 29.3335C29.3844 29.3335 30 28.7179 30 27.9585C30 27.1991 29.3844 26.5835 28.625 26.5835C27.8656 26.5835 27.25 27.1991 27.25 27.9585C27.25 28.7179 27.8656 29.3335 28.625 29.3335Z" stroke="#222222" stroke-width="1.75"/>
<path d="M38.708 39.4165C39.4674 39.4165 40.083 38.8009 40.083 38.0415C40.083 37.2821 39.4674 36.6665 38.708 36.6665C37.9486 36.6665 37.333 37.2821 37.333 38.0415C37.333 38.8009 37.9486 39.4165 38.708 39.4165Z" stroke="#222222" stroke-width="1.75"/>
</svg>
