<svg width="28" height="27" viewBox="0 0 28 27" fill="none" xmlns="http://www.w3.org/2000/svg">
<g clip-path="url(#clip0_11933_28603)">
<path d="M0.5 0H27.5V27H0.5V0Z" fill="#C7001D"/>
<path d="M14.8702 20.482C14.8702 20.5191 14.8746 20.5539 14.8833 20.5862C14.8927 20.6178 14.9061 20.6454 14.9235 20.6691C14.9409 20.692 14.9626 20.7102 14.9887 20.7236C15.0147 20.737 15.0443 20.7437 15.0775 20.7437C15.1058 20.744 15.134 20.7388 15.1604 20.7283C15.1856 20.7173 15.2077 20.7015 15.2267 20.681C15.2456 20.6605 15.2602 20.6356 15.2705 20.6064C15.2815 20.5764 15.2871 20.542 15.2871 20.5033C15.2889 20.4671 15.2857 20.4309 15.2776 20.3956C15.2697 20.3616 15.2571 20.332 15.2397 20.3068C15.2225 20.2817 15.1993 20.2613 15.1722 20.2475C15.1454 20.2325 15.1138 20.225 15.0775 20.225C15.0469 20.2246 15.0168 20.2319 14.9898 20.2464C14.9643 20.26 14.9421 20.279 14.9247 20.302C14.9065 20.3266 14.8928 20.3543 14.8844 20.3837C14.875 20.4145 14.8702 20.4473 14.8702 20.482ZM14.8702 20.7911H14.7992V19.9385H14.8702V20.276C14.8931 20.2381 14.9243 20.2096 14.9638 20.1907C15.0028 20.1713 15.0457 20.1611 15.0893 20.1611C15.1359 20.1611 15.1761 20.1702 15.2101 20.1883C15.2438 20.2049 15.273 20.2292 15.2954 20.2594C15.319 20.29 15.3363 20.325 15.3463 20.3624C15.3573 20.4019 15.3629 20.4429 15.3629 20.4856C15.3629 20.5306 15.3578 20.5728 15.3475 20.6123C15.3372 20.6517 15.3206 20.6861 15.2977 20.7153C15.275 20.7442 15.2458 20.7673 15.2125 20.7828C15.1778 20.7994 15.1355 20.8077 15.0858 20.8077C15.066 20.8077 15.0459 20.8049 15.0254 20.7994C15.0044 20.7937 14.9842 20.7858 14.965 20.7757C14.9458 20.7652 14.9279 20.7525 14.9117 20.7378C14.8958 20.7219 14.8826 20.7035 14.8726 20.6833H14.8702V20.7911ZM15.5101 20.9581L15.5385 20.9628C15.5488 20.9644 15.559 20.9652 15.5693 20.9652C15.5891 20.9652 15.6052 20.9589 15.6179 20.9462C15.6305 20.9336 15.6407 20.9182 15.6486 20.9C15.6575 20.8822 15.6646 20.8636 15.67 20.8444C15.6755 20.8254 15.6818 20.8092 15.6889 20.7958L15.4509 20.1777H15.5302L15.7268 20.7046L15.9234 20.1777H16.0004L15.7718 20.7828C15.7576 20.8215 15.7438 20.8562 15.7304 20.887C15.7177 20.9178 15.7039 20.9439 15.6889 20.9652C15.6747 20.9873 15.6585 21.0039 15.6404 21.0149C15.623 21.0268 15.6021 21.0327 15.5776 21.0327C15.5649 21.0327 15.5527 21.0319 15.5409 21.0303C15.5305 21.0289 15.5202 21.0269 15.5101 21.0244V20.9581ZM17.1163 20.6774H17.1186L17.3045 19.9385H17.3874L17.1636 20.7911H17.0748L16.877 20.0379H16.8747L16.6769 20.7911H16.5881L16.3678 19.9385H16.4484L16.6319 20.6774H16.6343L16.832 19.9385H16.922L17.1163 20.6774ZM17.4996 20.7911V19.9385H18.0668V20.0071H17.5801V20.315H18.0194V20.3837H17.5801V20.7224H18.0786V20.7911H17.4996ZM18.2199 20.7911V19.9385H18.3431L18.6226 20.6904H18.6249L18.8997 19.9385H19.0217V20.7911H18.9411V20.0308H18.9388L18.6593 20.7911H18.5835L18.3028 20.0308H18.3005V20.7911H18.2199ZM19.1318 20.7911L19.4669 19.9385H19.5581L19.8849 20.7911H19.802L19.7038 20.5235H19.3153L19.2147 20.7911H19.1318ZM19.3426 20.4548H19.6765L19.5095 20.0071L19.3426 20.4548ZM9.64455 18.6288H8.83872L8.71542 18.8964H8.12611V18.8197L9.11535 16.7194H9.37394L10.3526 18.8197V18.8964H9.77084L9.64455 18.6288ZM9.24164 17.6365L9.01915 18.1567H9.46564L9.24164 17.6365ZM12.3074 16.7405V18.3912H13.0877V18.8964H11.7451V16.7405H12.3074ZM16.085 18.6288H15.2793L15.156 18.8964H14.5667V18.8197L15.5559 16.7194H15.8145L16.7932 18.8197V18.8964H16.2113L16.085 18.6288ZM15.6822 17.6365L15.4596 18.1567H15.9062L15.6822 17.6365ZM18.7326 17.2336H18.2034V16.7405H19.8045V17.2336H19.2783V18.8964H18.7326V17.2336ZM7.084 15.251H14.238C14.3788 15.251 14.4704 15.1028 14.4074 14.9768L14.2603 14.6826L13.9524 14.1379L13.9366 14.1114C13.9197 14.0834 13.8959 14.0602 13.8674 14.044C13.839 14.0279 13.8068 14.0194 13.7741 14.0194H9.23917C9.09262 14.0194 9.00153 13.8601 9.07594 13.7338L12.0377 8.70523C12.1107 8.58127 12.2898 8.5807 12.3636 8.70424L16.2183 15.1587C16.2352 15.1869 16.259 15.2102 16.2875 15.2263C16.316 15.2425 16.3482 15.251 16.381 15.251H20.7768C20.9227 15.251 21.0139 15.0931 20.9409 14.9668L15.6887 5.87208C15.6721 5.84328 15.6482 5.81936 15.6194 5.80273C15.5906 5.7861 15.5579 5.77734 15.5246 5.77734H14.5829C14.4383 5.77734 14.347 5.93276 14.4174 6.05909L18.698 13.7377C18.7684 13.864 18.6771 14.0194 18.5325 14.0194H17.1165C17.0834 14.0195 17.0509 14.0108 17.0222 13.9943C16.9934 13.9778 16.9695 13.954 16.9529 13.9254L12.3967 6.10826C12.38 6.07963 12.3562 6.05588 12.3274 6.03937C12.2987 6.02286 12.2662 6.01418 12.233 6.01419H12.214C12.1809 6.01419 12.1483 6.02288 12.1196 6.03941C12.0908 6.05593 12.0669 6.07971 12.0503 6.10835L6.92025 14.9226C6.9034 14.9516 6.89452 14.9844 6.89453 15.0179V15.0616C6.89453 15.1118 6.91449 15.16 6.95003 15.1955C6.98556 15.2311 7.03375 15.251 7.084 15.251Z" fill="white"/>
</g>
<defs>
<clipPath id="clip0_11933_28603">
<rect width="27" height="27" fill="white" transform="translate(0.5)"/>
</clipPath>
</defs>
</svg>
